<svg width="199" height="135" viewBox="0 0 199 135" fill="none" xmlns="http://www.w3.org/2000/svg">
<path d="M37.3379 6.79102C36.1025 6.79102 34.9639 7.26367 34.3193 7.89746C33.2988 8.88574 32.9336 10.0459 32.9336 12.6348H31.4404V13.0752H32.9336V21.959C32.9336 23.1836 32.5576 23.5381 31.5264 23.5381V24C32.085 23.9785 33.2666 23.9141 34.3838 23.9141C35.9092 23.9141 37.4131 23.9785 38.1758 24V23.5381C36.876 23.5381 36.1025 23.1621 36.1025 21.7334V13.0752H38.4551V12.6348H36.1025V10.6367C36.1025 8.93945 36.21 8.20898 36.5107 7.76855C36.7471 7.41406 37.1338 7.18848 37.7031 7.18848C38.1328 7.18848 38.4014 7.32812 38.498 7.5C37.6494 7.74707 37.209 8.38086 37.209 9.13281C37.209 10.1104 37.8965 10.7012 38.8848 10.7012C39.8086 10.7012 40.4424 9.98145 40.4424 9.16504C40.4424 8.43457 40.1094 7.86523 39.6904 7.52148C39.0996 7.08105 38.3584 6.79102 37.3379 6.79102ZM41.6992 20.9062C40.5498 20.9062 39.8301 21.5508 39.8301 22.6143C39.8301 23.667 40.5498 24.3115 41.6992 24.3115C42.8486 24.3115 43.5791 23.667 43.5791 22.6143C43.5791 21.5508 42.8486 20.9062 41.6992 20.9062ZM53.1074 12.3125C51.5498 12.3125 50.3037 13.0537 49.6914 14.4502V12.3877C48.7783 12.6133 47.7041 12.6992 46.4795 12.6992C46.0391 12.6992 45.5771 12.6777 45.1152 12.6348V13.0967C46.1787 13.0967 46.5225 13.709 46.5225 15.0303V26.0195C46.5225 27.1904 46.168 27.5234 45.2012 27.5234V27.9854C45.749 27.9639 46.8984 27.8887 47.9727 27.8887C49.4658 27.8887 50.9268 27.9639 51.668 27.9854V27.5234C50.4326 27.5234 49.6914 27.1689 49.6914 25.8047V23.6025C50.2393 24.0645 51.0449 24.3115 51.9473 24.3115C55.0303 24.3115 57.0391 22.0771 57.0391 17.8018C57.0391 14.1387 55.3418 12.3125 53.1074 12.3125ZM51.0879 23.71C50.4971 23.71 50.0137 23.4951 49.6914 23.1191V15.2021C49.96 13.9561 50.8516 13.2578 51.8184 13.2578C52.9678 13.2578 53.7197 14.4932 53.7197 18.2314C53.7197 21.6152 53.043 23.71 51.0879 23.71ZM63.6562 12.3125C62.1738 12.3125 61.0996 12.624 60.3154 13.0645C59.5957 13.4834 59.0801 14.0957 59.0801 14.9014C59.0801 15.8682 59.6816 16.5986 60.6377 16.5986C61.7227 16.5986 62.4316 15.9326 62.4316 15.0195C62.4316 14.1279 61.916 13.5586 61.1318 13.29C61.5293 12.9033 62.1738 12.7529 62.7002 12.7529C64 12.7529 64.4941 13.5693 64.4941 14.7188V16.4375C64.4941 17.3828 63.2266 17.8018 61.6045 18.4141C59.5635 19.166 58.5107 20.0576 58.5107 21.6475C58.5107 23.248 59.6494 24.1504 61.293 24.1504C62.5283 24.1504 63.7852 23.6025 64.5371 22.3672C64.5479 23.3125 65.042 24.1504 66.6533 24.1504C67.7705 24.1504 68.501 23.8818 69.167 23.3447L68.9414 22.9688C68.6943 23.1621 68.4473 23.3447 68.1357 23.3447C67.7812 23.3447 67.6631 23.0762 67.6631 22.3672V16.3838C67.6631 14.8477 67.5234 13.9668 66.8789 13.3008C66.1699 12.5703 65.0742 12.3125 63.6562 12.3125ZM64.4941 21.8516C64.0322 22.5068 63.5488 22.7432 63.0117 22.7432C62.2275 22.7432 61.6367 22.249 61.6367 21.0352C61.6367 19.7139 62.3564 18.9941 63.1299 18.4248C63.8711 17.9629 64.29 17.6729 64.4941 17.3398V21.8516ZM74.2695 6.78027C73.3564 6.99512 72.2822 7.08105 71.0576 7.08105C70.6172 7.08105 70.1553 7.05957 69.6934 7.0166V7.47852C70.7568 7.47852 71.1006 8.10156 71.1006 9.42285V21.959C71.1006 23.1836 70.7246 23.5381 69.6934 23.5381V24C70.2842 23.9785 71.5947 23.9141 72.7441 23.9141C73.8828 23.9141 75.1182 23.9785 75.6768 24V23.5381C74.6562 23.5381 74.2695 23.1836 74.2695 21.959V6.78027ZM81.8965 12.3125C80.4141 12.3125 79.3398 12.624 78.5557 13.0645C77.8359 13.4834 77.3203 14.0957 77.3203 14.9014C77.3203 15.8682 77.9219 16.5986 78.8779 16.5986C79.9629 16.5986 80.6719 15.9326 80.6719 15.0195C80.6719 14.1279 80.1562 13.5586 79.3721 13.29C79.7695 12.9033 80.4141 12.7529 80.9404 12.7529C82.2402 12.7529 82.7344 13.5693 82.7344 14.7188V16.4375C82.7344 17.3828 81.4668 17.8018 79.8447 18.4141C77.8037 19.166 76.751 20.0576 76.751 21.6475C76.751 23.248 77.8896 24.1504 79.5332 24.1504C80.7686 24.1504 82.0254 23.6025 82.7773 22.3672C82.7881 23.3125 83.2822 24.1504 84.8936 24.1504C86.0107 24.1504 86.7412 23.8818 87.4072 23.3447L87.1816 22.9688C86.9346 23.1621 86.6875 23.3447 86.376 23.3447C86.0215 23.3447 85.9033 23.0762 85.9033 22.3672V16.3838C85.9033 14.8477 85.7637 13.9668 85.1191 13.3008C84.4102 12.5703 83.3145 12.3125 81.8965 12.3125ZM82.7344 21.8516C82.2725 22.5068 81.7891 22.7432 81.252 22.7432C80.4678 22.7432 79.877 22.249 79.877 21.0352C79.877 19.7139 80.5967 18.9941 81.3701 18.4248C82.1113 17.9629 82.5303 17.6729 82.7344 17.3398V21.8516ZM93.7451 12.3125C90.6299 12.3125 88.3096 14.3965 88.3096 18.3711C88.3096 22.4961 90.5654 24.3115 93.4336 24.3115C95.9473 24.3115 97.3008 22.4854 97.8057 20.8418L97.4189 20.7021C96.5273 22.1738 95.3564 22.4961 94.54 22.4961C93.0898 22.4961 91.6289 21.4756 91.6289 18.0596C91.6289 15.0732 92.585 12.8496 94.4111 12.8496C94.9912 12.8496 95.5068 13.0752 95.7324 13.376C94.9482 13.5908 94.2822 14.2568 94.2822 15.1807C94.2822 16.1689 94.9375 16.8135 95.9795 16.8135C96.9893 16.8135 97.7197 16.083 97.7197 15.041C97.7197 14.1709 97.2471 13.4404 96.5059 12.9893C95.8721 12.5918 94.8838 12.3125 93.7451 12.3125ZM105.422 22.4961C104.025 22.4961 102.554 21.3037 102.554 18.2422C102.554 17.8877 102.564 17.5225 102.597 17.2002H108.752C108.752 13.752 107.184 12.3125 104.616 12.3125C101.49 12.3125 99.2344 14.3428 99.2344 18.4248C99.2344 22.4424 101.34 24.3115 104.305 24.3115C106.743 24.3115 108.183 22.5391 108.709 20.8848L108.312 20.7344C107.42 22.1953 106.303 22.4961 105.422 22.4961ZM104.487 12.7852C105.562 12.7852 106.023 14.6328 105.98 16.7812H102.532C102.715 13.9346 103.499 12.7852 104.487 12.7852Z" fill="#2E2E2E"/>
<g clip-path="url(#clip0_401_5)">
<path d="M17.7021 12.4259L17.4346 11.5455C17.0949 10.5454 16.0087 10.0101 15.0086 10.3499C14.4459 10.5411 14.0041 10.9829 13.813 11.5455L13.5455 12.4259C13.3204 13.1684 13.2731 13.9535 13.4076 14.7176C13.5302 15.3609 13.9386 15.9136 14.5176 16.2197L14.218 22.9168C14.1779 23.2906 14.2991 23.6637 14.5513 23.9426C15.0937 24.5358 16.0143 24.5771 16.6075 24.0347C16.6396 24.0054 16.6703 23.9747 16.6996 23.9426C16.9462 23.6717 17.0672 23.3094 17.033 22.9447L16.7317 16.2188C17.3099 15.9126 17.7177 15.3603 17.8401 14.7176C17.9745 13.9535 17.9272 13.1684 17.7021 12.4259ZM17.0192 14.5726C16.929 15.0348 16.5996 15.414 16.1546 15.568C15.9857 15.6315 15.8769 15.7965 15.8851 15.9768L16.2017 23.0105C16.2163 23.1485 16.1708 23.286 16.0767 23.388C15.8258 23.6364 15.4218 23.6364 15.1709 23.388C15.0721 23.2778 15.0273 23.1295 15.0484 22.983L15.3626 15.9768C15.3707 15.7965 15.2619 15.6315 15.093 15.568C14.648 15.414 14.3186 15.0348 14.2284 14.5726C14.1169 13.9382 14.1562 13.2865 14.343 12.6701L14.6105 11.7893C14.8175 11.2296 15.4389 10.9437 15.9986 11.1507C16.2945 11.2601 16.5277 11.4934 16.6371 11.7893L16.9046 12.6701C17.0912 13.2865 17.1305 13.9382 17.0192 14.5726Z" fill="#FF9401"/>
<path d="M11.2492 10.25C11.0191 10.25 10.8325 10.4366 10.8325 10.6667V14.2442L9.7046 15.3721C9.62117 15.4552 9.57679 15.5698 9.58252 15.6875L9.9471 22.9792C9.9558 23.1364 9.89872 23.2902 9.7896 23.4038C9.56153 23.6339 9.19007 23.6355 8.95992 23.4074C8.95867 23.4062 8.95747 23.4049 8.95627 23.4038C8.8471 23.2902 8.79007 23.1364 8.79877 22.9792L9.16585 15.6875C9.17169 15.5699 9.12747 15.4553 9.04419 15.3721L7.91585 14.2442V10.6667C7.91585 10.4366 7.72929 10.25 7.49919 10.25C7.26908 10.25 7.08252 10.4366 7.08252 10.6667V14.4167C7.08252 14.5272 7.12648 14.6331 7.2046 14.7113L8.32377 15.8308L7.96835 22.9388C7.93054 23.7152 8.52929 24.3753 9.3057 24.4131C10.0821 24.4509 10.7422 23.8521 10.78 23.0757C10.7823 23.0301 10.7823 22.9844 10.78 22.9388L10.4246 15.8309L11.5438 14.7113C11.6219 14.6332 11.6659 14.5272 11.6659 14.4167V10.6667C11.6659 10.4366 11.4793 10.25 11.2492 10.25Z" fill="#FF9401"/>
<path d="M8.74919 10.25C8.51908 10.25 8.33252 10.4366 8.33252 10.6667V14C8.33252 14.2301 8.51908 14.4167 8.74919 14.4167C8.97929 14.4167 9.16585 14.2301 9.16585 14V10.6667C9.16585 10.4366 8.97929 10.25 8.74919 10.25Z" fill="#FF9401"/>
<path d="M9.99919 10.25C9.76908 10.25 9.58252 10.4366 9.58252 10.6667V14C9.58252 14.2301 9.76908 14.4167 9.99919 14.4167C10.2293 14.4167 10.4159 14.2301 10.4159 14V10.6667C10.4159 10.4366 10.2293 10.25 9.99919 10.25Z" fill="#FF9401"/>
<path d="M12.5 4C5.59646 4 0 9.59646 0 16.5C0 23.4035 5.59646 29 12.5 29C19.4035 29 25 23.4035 25 16.5C24.9922 9.59969 19.4003 4.00781 12.5 4ZM12.5 28.1667C6.05667 28.1667 0.833333 22.9433 0.833333 16.5C0.833333 10.0567 6.05667 4.83333 12.5 4.83333C18.9433 4.83333 24.1667 10.0567 24.1667 16.5C24.1593 22.9403 18.9403 28.1593 12.5 28.1667Z" fill="#2E2E2E"/>
<path d="M13.8525 24.3213C13.8301 24.0923 13.6263 23.9248 13.3973 23.9471C13.3919 23.9476 13.3865 23.9483 13.3812 23.949L13.3828 23.9486C12.7962 24.0167 12.2036 24.0167 11.617 23.9486C11.3883 23.9218 11.1813 24.0854 11.1545 24.314C11.1277 24.5426 11.2913 24.7497 11.5199 24.7765C12.1705 24.8525 12.8277 24.8525 13.4782 24.7765C13.7073 24.7542 13.8748 24.5504 13.8525 24.3213Z" fill="#2E2E2E"/>
<path d="M18.8748 11.1309C18.7269 10.9546 18.4641 10.9315 18.2878 11.0795C18.2872 11.0799 18.2867 11.0804 18.286 11.0809C18.1102 11.2292 18.0878 11.4921 18.236 11.668C20.7483 14.6503 20.5561 19.0601 17.794 21.8126C17.6309 21.975 17.6305 22.2389 17.7929 22.402C17.9554 22.565 18.2193 22.5654 18.3823 22.403C21.4519 19.345 21.666 14.4449 18.8748 11.1309Z" fill="#2E2E2E"/>
<path d="M9.71014 9.5077C9.70978 9.5077 9.70942 9.50763 9.70906 9.50763C9.70849 9.50763 9.70792 9.5077 9.70728 9.5077H9.71014Z" fill="#2E2E2E"/>
<path d="M14.4667 8.39979C12.8383 8.00953 11.1305 8.11443 9.5621 8.70104C9.34669 8.78203 9.23778 9.02234 9.31877 9.23771C9.37981 9.40005 9.53502 9.5075 9.70841 9.50766C9.75825 9.5074 9.80762 9.49828 9.85419 9.48063C11.2666 8.95245 12.8045 8.85813 14.2709 9.20979C14.4946 9.26386 14.7197 9.12641 14.7738 8.90271C14.8278 8.67901 14.6904 8.45386 14.4667 8.39979Z" fill="#2E2E2E"/>
<path d="M7.18629 21.7915C5.78165 20.3892 4.99441 18.4846 4.9992 16.4998C4.99509 14.9141 5.49738 13.3685 6.43295 12.0882C6.57124 11.9042 6.5342 11.643 6.35025 11.5047C6.16629 11.3664 5.90509 11.4035 5.76681 11.5874C5.76436 11.5907 5.76196 11.594 5.75962 11.5973C3.35061 14.9092 3.70509 19.4806 6.59587 22.3815C6.75879 22.5445 7.02306 22.5446 7.18608 22.3817C7.3491 22.2188 7.34921 21.9545 7.18629 21.7915Z" fill="#2E2E2E"/>
</g>
<path d="M35.04 74H33.44V62.656H35.04V74ZM39.2684 69.552V74H37.7644V66.304H39.2364V67.408C39.7484 66.5227 40.5377 66.08 41.6044 66.08C42.4897 66.08 43.167 66.3627 43.6364 66.928C44.1164 67.4933 44.3564 68.224 44.3564 69.12V74H42.8524V69.376C42.8524 68.0853 42.255 67.44 41.0604 67.44C40.495 67.44 40.0524 67.6427 39.7324 68.048C39.423 68.4427 39.2684 68.944 39.2684 69.552ZM50.6208 67.664H48.7648V74H47.2128V67.664H45.7888V66.304H47.2128V65.008C47.2128 64.1867 47.4528 63.5413 47.9328 63.072C48.4128 62.6027 49.0154 62.368 49.7408 62.368C50.1994 62.368 50.4981 62.4213 50.6368 62.528V63.872C50.4768 63.808 50.2581 63.776 49.9808 63.776C49.6501 63.776 49.3621 63.8773 49.1168 64.08C48.8821 64.272 48.7648 64.608 48.7648 65.088V66.304H50.6208V67.664ZM53.5046 72.176C53.974 72.656 54.5446 72.896 55.2166 72.896C55.8886 72.896 56.454 72.656 56.9126 72.176C57.382 71.6853 57.6166 71.008 57.6166 70.144C57.6166 69.2907 57.382 68.624 56.9126 68.144C56.454 67.6533 55.8886 67.408 55.2166 67.408C54.5446 67.408 53.974 67.6533 53.5046 68.144C53.046 68.624 52.8166 69.2907 52.8166 70.144C52.8166 71.008 53.046 71.6853 53.5046 72.176ZM52.3846 67.232C53.1313 66.4533 54.0753 66.064 55.2166 66.064C56.358 66.064 57.2966 66.4533 58.0326 67.232C58.7793 68 59.1526 68.9707 59.1526 70.144C59.1526 71.328 58.7846 72.3093 58.0486 73.088C57.3126 73.856 56.3686 74.24 55.2166 74.24C54.0646 74.24 53.1206 73.856 52.3846 73.088C51.6486 72.3093 51.2806 71.328 51.2806 70.144C51.2806 68.9707 51.6486 68 52.3846 67.232ZM69.4129 71.808C69.0182 71.808 68.6769 71.7227 68.3889 71.552C68.1009 71.3813 67.9142 71.1253 67.8289 70.784C67.3382 71.488 66.7035 71.84 65.9249 71.84C65.1995 71.84 64.6075 71.5893 64.1489 71.088C63.7009 70.5867 63.4769 69.9253 63.4769 69.104C63.4769 68.048 63.7915 67.1627 64.4209 66.448C65.0502 65.7333 65.8022 65.376 66.6769 65.376C67.0502 65.376 67.3969 65.4667 67.7169 65.648C68.0475 65.8293 68.2715 66.0907 68.3889 66.432L68.5329 65.584H69.7969L68.9329 69.6C68.9009 69.76 68.8849 69.9093 68.8849 70.048C68.8849 70.4853 69.0875 70.704 69.4929 70.704C69.9409 70.704 70.3409 70.4 70.6929 69.792C71.0449 69.1733 71.2209 68.464 71.2209 67.664C71.2209 66.48 70.8049 65.504 69.9729 64.736C69.1515 63.968 68.0742 63.584 66.7409 63.584C65.3222 63.584 64.1489 64.0587 63.2209 65.008C62.2929 65.9467 61.8289 67.1733 61.8289 68.688C61.8289 70.1173 62.2822 71.2907 63.1889 72.208C64.1062 73.1253 65.3489 73.584 66.9169 73.584C68.1649 73.584 69.2582 73.2107 70.1969 72.464L70.8529 73.328C70.3942 73.7547 69.7969 74.096 69.0609 74.352C68.3355 74.6187 67.6209 74.752 66.9169 74.752C65.0395 74.752 63.5035 74.192 62.3089 73.072C61.1142 71.9413 60.5169 70.4747 60.5169 68.672C60.5169 66.848 61.1195 65.3493 62.3249 64.176C63.5302 63.0027 64.9969 62.416 66.7249 62.416C68.3569 62.416 69.7169 62.9173 70.8049 63.92C71.9035 64.912 72.4529 66.1547 72.4529 67.648C72.4529 68.832 72.1542 69.824 71.5569 70.624C70.9702 71.4133 70.2555 71.808 69.4129 71.808ZM68.0369 68.08C68.0369 67.6 67.9195 67.232 67.6849 66.976C67.4502 66.7093 67.1195 66.576 66.6929 66.576C66.1382 66.576 65.6795 66.816 65.3169 67.296C64.9649 67.7653 64.7889 68.3093 64.7889 68.928C64.7889 70.0907 65.2422 70.672 66.1489 70.672C66.6929 70.672 67.1355 70.432 67.4769 69.952C67.8289 69.4613 68.0155 68.8373 68.0369 68.08ZM78.1676 67.664H76.3116V74H74.7596V67.664H73.3356V66.304H74.7596V65.008C74.7596 64.1867 74.9996 63.5413 75.4796 63.072C75.9596 62.6027 76.5623 62.368 77.2876 62.368C77.7463 62.368 78.045 62.4213 78.1836 62.528V63.872C78.0236 63.808 77.805 63.776 77.5276 63.776C77.197 63.776 76.909 63.8773 76.6636 64.08C76.429 64.272 76.3116 64.608 76.3116 65.088V66.304H78.1676V67.664ZM81.0515 72.176C81.5208 72.656 82.0915 72.896 82.7635 72.896C83.4355 72.896 84.0008 72.656 84.4595 72.176C84.9288 71.6853 85.1635 71.008 85.1635 70.144C85.1635 69.2907 84.9288 68.624 84.4595 68.144C84.0008 67.6533 83.4355 67.408 82.7635 67.408C82.0915 67.408 81.5208 67.6533 81.0515 68.144C80.5928 68.624 80.3635 69.2907 80.3635 70.144C80.3635 71.008 80.5928 71.6853 81.0515 72.176ZM79.9315 67.232C80.6782 66.4533 81.6222 66.064 82.7635 66.064C83.9048 66.064 84.8435 66.4533 85.5795 67.232C86.3262 68 86.6995 68.9707 86.6995 70.144C86.6995 71.328 86.3315 72.3093 85.5955 73.088C84.8595 73.856 83.9155 74.24 82.7635 74.24C81.6115 74.24 80.6675 73.856 79.9315 73.088C79.1955 72.3093 78.8275 71.328 78.8275 70.144C78.8275 68.9707 79.1955 68 79.9315 67.232ZM90.2078 72.176C90.6771 72.656 91.2478 72.896 91.9198 72.896C92.5918 72.896 93.1571 72.656 93.6158 72.176C94.0851 71.6853 94.3198 71.008 94.3198 70.144C94.3198 69.2907 94.0851 68.624 93.6158 68.144C93.1571 67.6533 92.5918 67.408 91.9198 67.408C91.2478 67.408 90.6771 67.6533 90.2078 68.144C89.7491 68.624 89.5198 69.2907 89.5198 70.144C89.5198 71.008 89.7491 71.6853 90.2078 72.176ZM89.0878 67.232C89.8344 66.4533 90.7784 66.064 91.9198 66.064C93.0611 66.064 93.9998 66.4533 94.7358 67.232C95.4824 68 95.8558 68.9707 95.8558 70.144C95.8558 71.328 95.4878 72.3093 94.7518 73.088C94.0158 73.856 93.0718 74.24 91.9198 74.24C90.7678 74.24 89.8238 73.856 89.0878 73.088C88.3518 72.3093 87.9838 71.328 87.9838 70.144C87.9838 68.9707 88.3518 68 89.0878 67.232ZM98.676 70.128C98.676 70.9387 98.8733 71.6 99.268 72.112C99.6733 72.624 100.228 72.88 100.932 72.88C101.604 72.88 102.143 72.6187 102.548 72.096C102.953 71.5733 103.156 70.9067 103.156 70.096C103.156 69.296 102.959 68.6507 102.564 68.16C102.169 67.6693 101.631 67.424 100.948 67.424C100.265 67.424 99.716 67.6747 99.3 68.176C98.884 68.6773 98.676 69.328 98.676 70.128ZM103.172 72.96V72.832C102.969 73.2267 102.66 73.5573 102.244 73.824C101.839 74.08 101.353 74.208 100.788 74.208C99.6893 74.208 98.804 73.824 98.132 73.056C97.4707 72.2773 97.14 71.3013 97.14 70.128C97.14 69.008 97.4813 68.0587 98.164 67.28C98.8467 66.4907 99.7213 66.096 100.788 66.096C101.417 66.096 101.929 66.224 102.324 66.48C102.719 66.7253 102.991 67.0293 103.14 67.392V62.416H104.628V72.576C104.628 73.0987 104.655 73.5733 104.708 74H103.252C103.199 73.7013 103.172 73.3547 103.172 72.96ZM114.338 75.264H106.146V74H114.338V75.264ZM117.346 77.04H115.858V66.304H117.314V67.504C117.538 67.0987 117.874 66.768 118.322 66.512C118.77 66.256 119.293 66.128 119.89 66.128C120.999 66.128 121.863 66.5067 122.482 67.264C123.111 68.0213 123.426 68.9813 123.426 70.144C123.426 71.3173 123.101 72.288 122.45 73.056C121.81 73.824 120.941 74.208 119.842 74.208C119.277 74.208 118.775 74.0907 118.338 73.856C117.901 73.6213 117.57 73.3227 117.346 72.96V77.04ZM121.89 70.144C121.89 69.3653 121.682 68.7253 121.266 68.224C120.861 67.712 120.311 67.456 119.618 67.456C118.935 67.456 118.381 67.712 117.954 68.224C117.538 68.7253 117.33 69.3653 117.33 70.144C117.33 70.944 117.538 71.6 117.954 72.112C118.381 72.6133 118.935 72.864 119.618 72.864C120.301 72.864 120.85 72.6133 121.266 72.112C121.682 71.6 121.89 70.944 121.89 70.144ZM124.863 71.936C124.863 71.2747 125.076 70.7467 125.503 70.352C125.929 69.9467 126.495 69.696 127.199 69.6L129.279 69.296C129.673 69.2427 129.871 69.0507 129.871 68.72C129.871 68.3147 129.732 67.984 129.455 67.728C129.177 67.472 128.761 67.344 128.207 67.344C127.695 67.344 127.289 67.488 126.991 67.776C126.692 68.0533 126.516 68.4267 126.463 68.896L125.023 68.56C125.097 67.824 125.433 67.2267 126.031 66.768C126.628 66.2987 127.343 66.064 128.174 66.064C129.263 66.064 130.068 66.3307 130.591 66.864C131.113 67.3867 131.375 68.0587 131.375 68.88V72.736C131.375 73.1947 131.407 73.616 131.471 74H129.999C129.945 73.68 129.919 73.3333 129.919 72.96C129.705 73.3013 129.391 73.6 128.975 73.856C128.569 74.112 128.057 74.24 127.439 74.24C126.681 74.24 126.063 74.016 125.583 73.568C125.103 73.1093 124.863 72.5653 124.863 71.936ZM127.647 72.976C128.319 72.976 128.857 72.7947 129.263 72.432C129.668 72.0693 129.871 71.4933 129.871 70.704V70.352L127.519 70.704C127.177 70.7573 126.905 70.88 126.703 71.072C126.5 71.264 126.399 71.5253 126.399 71.856C126.399 72.1547 126.511 72.416 126.735 72.64C126.969 72.864 127.273 72.976 127.647 72.976ZM135.222 74H133.718V62.416H135.222V74ZM137.3 71.936C137.3 71.2747 137.513 70.7467 137.94 70.352C138.367 69.9467 138.932 69.696 139.636 69.6L141.716 69.296C142.111 69.2427 142.308 69.0507 142.308 68.72C142.308 68.3147 142.169 67.984 141.892 67.728C141.615 67.472 141.199 67.344 140.644 67.344C140.132 67.344 139.727 67.488 139.428 67.776C139.129 68.0533 138.953 68.4267 138.9 68.896L137.46 68.56C137.535 67.824 137.871 67.2267 138.468 66.768C139.065 66.2987 139.78 66.064 140.612 66.064C141.7 66.064 142.505 66.3307 143.028 66.864C143.551 67.3867 143.812 68.0587 143.812 68.88V72.736C143.812 73.1947 143.844 73.616 143.908 74H142.436C142.383 73.68 142.356 73.3333 142.356 72.96C142.143 73.3013 141.828 73.6 141.412 73.856C141.007 74.112 140.495 74.24 139.876 74.24C139.119 74.24 138.5 74.016 138.02 73.568C137.54 73.1093 137.3 72.5653 137.3 71.936ZM140.084 72.976C140.756 72.976 141.295 72.7947 141.7 72.432C142.105 72.0693 142.308 71.4933 142.308 70.704V70.352L139.956 70.704C139.615 70.7573 139.343 70.88 139.14 71.072C138.937 71.264 138.836 71.5253 138.836 71.856C138.836 72.1547 138.948 72.416 139.172 72.64C139.407 72.864 139.711 72.976 140.084 72.976ZM149.387 67.456C148.736 67.456 148.182 67.6907 147.723 68.16C147.275 68.6293 147.051 69.2907 147.051 70.144C147.051 70.9867 147.275 71.648 147.723 72.128C148.182 72.608 148.742 72.848 149.403 72.848C150.043 72.848 150.528 72.688 150.859 72.368C151.2 72.048 151.43 71.68 151.547 71.264L152.875 71.84C152.662 72.48 152.256 73.04 151.659 73.52C151.072 74 150.32 74.24 149.403 74.24C148.283 74.24 147.355 73.8507 146.619 73.072C145.883 72.2933 145.515 71.3173 145.515 70.144C145.515 68.9493 145.883 67.9733 146.619 67.216C147.355 66.448 148.278 66.064 149.387 66.064C150.326 66.064 151.083 66.304 151.659 66.784C152.246 67.264 152.63 67.84 152.811 68.512L151.451 69.088C151.334 68.64 151.11 68.256 150.779 67.936C150.448 67.616 149.984 67.456 149.387 67.456ZM155.537 69.36H159.745C159.724 68.784 159.532 68.3147 159.169 67.952C158.807 67.5787 158.295 67.392 157.633 67.392C157.036 67.392 156.545 67.5893 156.161 67.984C155.777 68.368 155.569 68.8267 155.537 69.36ZM159.969 71.36L161.265 71.808C161.041 72.5227 160.625 73.1093 160.017 73.568C159.409 74.016 158.673 74.24 157.809 74.24C156.732 74.24 155.815 73.872 155.057 73.136C154.311 72.3893 153.937 71.3867 153.937 70.128C153.937 68.9547 154.3 67.984 155.025 67.216C155.751 66.448 156.615 66.064 157.617 66.064C158.78 66.064 159.687 66.432 160.337 67.168C160.988 67.8933 161.313 68.8693 161.313 70.096C161.313 70.288 161.303 70.448 161.281 70.576H155.489C155.5 71.2587 155.724 71.8187 156.161 72.256C156.609 72.6933 157.159 72.912 157.809 72.912C158.908 72.912 159.628 72.3947 159.969 71.36ZM163.159 73.76C162.945 73.5467 162.839 73.2853 162.839 72.976C162.839 72.6667 162.945 72.4053 163.159 72.192C163.372 71.968 163.633 71.856 163.943 71.856C164.252 71.856 164.513 71.968 164.727 72.192C164.951 72.4053 165.063 72.6667 165.063 72.976C165.063 73.2853 164.951 73.5467 164.727 73.76C164.513 73.9733 164.252 74.08 163.943 74.08C163.633 74.08 163.372 73.9733 163.159 73.76ZM170.465 67.456C169.814 67.456 169.26 67.6907 168.801 68.16C168.353 68.6293 168.129 69.2907 168.129 70.144C168.129 70.9867 168.353 71.648 168.801 72.128C169.26 72.608 169.82 72.848 170.481 72.848C171.121 72.848 171.606 72.688 171.937 72.368C172.278 72.048 172.508 71.68 172.625 71.264L173.953 71.84C173.74 72.48 173.334 73.04 172.737 73.52C172.15 74 171.398 74.24 170.481 74.24C169.361 74.24 168.433 73.8507 167.697 73.072C166.961 72.2933 166.593 71.3173 166.593 70.144C166.593 68.9493 166.961 67.9733 167.697 67.216C168.433 66.448 169.356 66.064 170.465 66.064C171.404 66.064 172.161 66.304 172.737 66.784C173.324 67.264 173.708 67.84 173.889 68.512L172.529 69.088C172.412 68.64 172.188 68.256 171.857 67.936C171.526 67.616 171.062 67.456 170.465 67.456ZM177.223 72.176C177.693 72.656 178.263 72.896 178.935 72.896C179.607 72.896 180.173 72.656 180.631 72.176C181.101 71.6853 181.335 71.008 181.335 70.144C181.335 69.2907 181.101 68.624 180.631 68.144C180.173 67.6533 179.607 67.408 178.935 67.408C178.263 67.408 177.693 67.6533 177.223 68.144C176.765 68.624 176.535 69.2907 176.535 70.144C176.535 71.008 176.765 71.6853 177.223 72.176ZM176.103 67.232C176.85 66.4533 177.794 66.064 178.935 66.064C180.077 66.064 181.015 66.4533 181.751 67.232C182.498 68 182.871 68.9707 182.871 70.144C182.871 71.328 182.503 72.3093 181.767 73.088C181.031 73.856 180.087 74.24 178.935 74.24C177.783 74.24 176.839 73.856 176.103 73.088C175.367 72.3093 174.999 71.328 174.999 70.144C174.999 68.9707 175.367 68 176.103 67.232ZM186.284 74H184.796V66.304H186.236V67.328C186.47 66.9227 186.801 66.6133 187.228 66.4C187.654 66.1867 188.102 66.08 188.572 66.08C189.073 66.08 189.532 66.2027 189.948 66.448C190.364 66.6933 190.673 67.056 190.876 67.536C191.409 66.5653 192.268 66.08 193.452 66.08C194.188 66.08 194.812 66.3307 195.324 66.832C195.846 67.3333 196.108 68.0587 196.108 69.008V74H194.62V69.168C194.62 68.6347 194.481 68.208 194.204 67.888C193.937 67.568 193.532 67.408 192.988 67.408C192.465 67.408 192.038 67.5947 191.708 67.968C191.377 68.3307 191.212 68.7893 191.212 69.344V74H189.708V69.168C189.708 68.6347 189.569 68.208 189.292 67.888C189.025 67.568 188.62 67.408 188.076 67.408C187.542 67.408 187.11 67.5893 186.78 67.952C186.449 68.3147 186.284 68.784 186.284 69.36V74Z" fill="#3F3232"/>
<path d="M37.616 118.304H39.168L41.168 124.096L42.864 118.304H44.448L41.952 126H40.4L38.352 120.144L36.352 126H34.768L32.24 118.304H33.888L35.616 124.096L37.616 118.304ZM50.3035 118.304H51.8555L53.8555 124.096L55.5515 118.304H57.1355L54.6395 126H53.0875L51.0395 120.144L49.0395 126H47.4555L44.9275 118.304H46.5755L48.3035 124.096L50.3035 118.304ZM62.991 118.304H64.543L66.543 124.096L68.239 118.304H69.823L67.327 126H65.775L63.727 120.144L61.727 126H60.143L57.615 118.304H59.263L60.991 124.096L62.991 118.304ZM70.8619 125.76C70.6485 125.547 70.5419 125.285 70.5419 124.976C70.5419 124.667 70.6485 124.405 70.8619 124.192C71.0752 123.968 71.3365 123.856 71.6459 123.856C71.9552 123.856 72.2165 123.968 72.4299 124.192C72.6539 124.405 72.7659 124.667 72.7659 124.976C72.7659 125.285 72.6539 125.547 72.4299 125.76C72.2165 125.973 71.9552 126.08 71.6459 126.08C71.3365 126.08 71.0752 125.973 70.8619 125.76ZM79.0426 119.664H77.1866V126H75.6346V119.664H74.2106V118.304H75.6346V117.008C75.6346 116.187 75.8746 115.541 76.3546 115.072C76.8346 114.603 77.4373 114.368 78.1626 114.368C78.6213 114.368 78.92 114.421 79.0586 114.528V115.872C78.8986 115.808 78.68 115.776 78.4026 115.776C78.072 115.776 77.784 115.877 77.5386 116.08C77.304 116.272 77.1866 116.608 77.1866 117.088V118.304H79.0426V119.664ZM81.9265 124.176C82.3958 124.656 82.9665 124.896 83.6385 124.896C84.3105 124.896 84.8758 124.656 85.3345 124.176C85.8038 123.685 86.0385 123.008 86.0385 122.144C86.0385 121.291 85.8038 120.624 85.3345 120.144C84.8758 119.653 84.3105 119.408 83.6385 119.408C82.9665 119.408 82.3958 119.653 81.9265 120.144C81.4678 120.624 81.2385 121.291 81.2385 122.144C81.2385 123.008 81.4678 123.685 81.9265 124.176ZM80.8065 119.232C81.5532 118.453 82.4972 118.064 83.6385 118.064C84.7798 118.064 85.7185 118.453 86.4545 119.232C87.2012 120 87.5745 120.971 87.5745 122.144C87.5745 123.328 87.2065 124.309 86.4705 125.088C85.7345 125.856 84.7905 126.24 83.6385 126.24C82.4865 126.24 81.5425 125.856 80.8065 125.088C80.0705 124.309 79.7025 123.328 79.7025 122.144C79.7025 120.971 80.0705 120 80.8065 119.232ZM91.0828 124.176C91.5521 124.656 92.1228 124.896 92.7948 124.896C93.4668 124.896 94.0321 124.656 94.4908 124.176C94.9601 123.685 95.1948 123.008 95.1948 122.144C95.1948 121.291 94.9601 120.624 94.4908 120.144C94.0321 119.653 93.4668 119.408 92.7948 119.408C92.1228 119.408 91.5521 119.653 91.0828 120.144C90.6241 120.624 90.3948 121.291 90.3948 122.144C90.3948 123.008 90.6241 123.685 91.0828 124.176ZM89.9628 119.232C90.7094 118.453 91.6534 118.064 92.7948 118.064C93.9361 118.064 94.8748 118.453 95.6108 119.232C96.3574 120 96.7308 120.971 96.7308 122.144C96.7308 123.328 96.3628 124.309 95.6268 125.088C94.8908 125.856 93.9468 126.24 92.7948 126.24C91.6428 126.24 90.6988 125.856 89.9628 125.088C89.2268 124.309 88.8588 123.328 88.8588 122.144C88.8588 120.971 89.2268 120 89.9628 119.232ZM99.551 122.128C99.551 122.939 99.7483 123.6 100.143 124.112C100.548 124.624 101.103 124.88 101.807 124.88C102.479 124.88 103.018 124.619 103.423 124.096C103.828 123.573 104.031 122.907 104.031 122.096C104.031 121.296 103.834 120.651 103.439 120.16C103.044 119.669 102.506 119.424 101.823 119.424C101.14 119.424 100.591 119.675 100.175 120.176C99.759 120.677 99.551 121.328 99.551 122.128ZM104.047 124.96V124.832C103.844 125.227 103.535 125.557 103.119 125.824C102.714 126.08 102.228 126.208 101.663 126.208C100.564 126.208 99.679 125.824 99.007 125.056C98.3457 124.277 98.015 123.301 98.015 122.128C98.015 121.008 98.3563 120.059 99.039 119.28C99.7217 118.491 100.596 118.096 101.663 118.096C102.292 118.096 102.804 118.224 103.199 118.48C103.594 118.725 103.866 119.029 104.015 119.392V114.416H105.503V124.576C105.503 125.099 105.53 125.573 105.583 126H104.127C104.074 125.701 104.047 125.355 104.047 124.96ZM115.213 127.264H107.021V126H115.213V127.264ZM118.221 129.04H116.733V118.304H118.189V119.504C118.413 119.099 118.749 118.768 119.197 118.512C119.645 118.256 120.168 118.128 120.765 118.128C121.874 118.128 122.738 118.507 123.357 119.264C123.986 120.021 124.301 120.981 124.301 122.144C124.301 123.317 123.976 124.288 123.325 125.056C122.685 125.824 121.816 126.208 120.717 126.208C120.152 126.208 119.65 126.091 119.213 125.856C118.776 125.621 118.445 125.323 118.221 124.96V129.04ZM122.765 122.144C122.765 121.365 122.557 120.725 122.141 120.224C121.736 119.712 121.186 119.456 120.493 119.456C119.81 119.456 119.256 119.712 118.829 120.224C118.413 120.725 118.205 121.365 118.205 122.144C118.205 122.944 118.413 123.6 118.829 124.112C119.256 124.613 119.81 124.864 120.493 124.864C121.176 124.864 121.725 124.613 122.141 124.112C122.557 123.6 122.765 122.944 122.765 122.144ZM125.738 123.936C125.738 123.275 125.951 122.747 126.378 122.352C126.804 121.947 127.37 121.696 128.074 121.6L130.154 121.296C130.548 121.243 130.746 121.051 130.746 120.72C130.746 120.315 130.607 119.984 130.33 119.728C130.052 119.472 129.636 119.344 129.082 119.344C128.57 119.344 128.164 119.488 127.866 119.776C127.567 120.053 127.391 120.427 127.338 120.896L125.898 120.56C125.972 119.824 126.308 119.227 126.906 118.768C127.503 118.299 128.218 118.064 129.049 118.064C130.138 118.064 130.943 118.331 131.466 118.864C131.988 119.387 132.25 120.059 132.25 120.88V124.736C132.25 125.195 132.282 125.616 132.346 126H130.874C130.82 125.68 130.794 125.333 130.794 124.96C130.58 125.301 130.266 125.6 129.85 125.856C129.444 126.112 128.932 126.24 128.314 126.24C127.556 126.24 126.938 126.016 126.458 125.568C125.978 125.109 125.738 124.565 125.738 123.936ZM128.522 124.976C129.194 124.976 129.732 124.795 130.138 124.432C130.543 124.069 130.746 123.493 130.746 122.704V122.352L128.394 122.704C128.052 122.757 127.78 122.88 127.578 123.072C127.375 123.264 127.274 123.525 127.274 123.856C127.274 124.155 127.386 124.416 127.61 124.64C127.844 124.864 128.148 124.976 128.522 124.976ZM136.097 126H134.593V114.416H136.097V126ZM138.175 123.936C138.175 123.275 138.388 122.747 138.815 122.352C139.242 121.947 139.807 121.696 140.511 121.6L142.591 121.296C142.986 121.243 143.183 121.051 143.183 120.72C143.183 120.315 143.044 119.984 142.767 119.728C142.49 119.472 142.074 119.344 141.519 119.344C141.007 119.344 140.602 119.488 140.303 119.776C140.004 120.053 139.828 120.427 139.775 120.896L138.335 120.56C138.41 119.824 138.746 119.227 139.343 118.768C139.94 118.299 140.655 118.064 141.487 118.064C142.575 118.064 143.38 118.331 143.903 118.864C144.426 119.387 144.687 120.059 144.687 120.88V124.736C144.687 125.195 144.719 125.616 144.783 126H143.311C143.258 125.68 143.231 125.333 143.231 124.96C143.018 125.301 142.703 125.6 142.287 125.856C141.882 126.112 141.37 126.24 140.751 126.24C139.994 126.24 139.375 126.016 138.895 125.568C138.415 125.109 138.175 124.565 138.175 123.936ZM140.959 124.976C141.631 124.976 142.17 124.795 142.575 124.432C142.98 124.069 143.183 123.493 143.183 122.704V122.352L140.831 122.704C140.49 122.757 140.218 122.88 140.015 123.072C139.812 123.264 139.711 123.525 139.711 123.856C139.711 124.155 139.823 124.416 140.047 124.64C140.282 124.864 140.586 124.976 140.959 124.976ZM150.262 119.456C149.611 119.456 149.057 119.691 148.598 120.16C148.15 120.629 147.926 121.291 147.926 122.144C147.926 122.987 148.15 123.648 148.598 124.128C149.057 124.608 149.617 124.848 150.278 124.848C150.918 124.848 151.403 124.688 151.734 124.368C152.075 124.048 152.305 123.68 152.422 123.264L153.75 123.84C153.537 124.48 153.131 125.04 152.534 125.52C151.947 126 151.195 126.24 150.278 126.24C149.158 126.24 148.23 125.851 147.494 125.072C146.758 124.293 146.39 123.317 146.39 122.144C146.39 120.949 146.758 119.973 147.494 119.216C148.23 118.448 149.153 118.064 150.262 118.064C151.201 118.064 151.958 118.304 152.534 118.784C153.121 119.264 153.505 119.84 153.686 120.512L152.326 121.088C152.209 120.64 151.985 120.256 151.654 119.936C151.323 119.616 150.859 119.456 150.262 119.456ZM156.412 121.36H160.62C160.599 120.784 160.407 120.315 160.044 119.952C159.682 119.579 159.17 119.392 158.508 119.392C157.911 119.392 157.42 119.589 157.036 119.984C156.652 120.368 156.444 120.827 156.412 121.36ZM160.844 123.36L162.14 123.808C161.916 124.523 161.5 125.109 160.892 125.568C160.284 126.016 159.548 126.24 158.684 126.24C157.607 126.24 156.69 125.872 155.932 125.136C155.186 124.389 154.812 123.387 154.812 122.128C154.812 120.955 155.175 119.984 155.9 119.216C156.626 118.448 157.49 118.064 158.492 118.064C159.655 118.064 160.562 118.432 161.212 119.168C161.863 119.893 162.188 120.869 162.188 122.096C162.188 122.288 162.178 122.448 162.156 122.576H156.364C156.375 123.259 156.599 123.819 157.036 124.256C157.484 124.693 158.034 124.912 158.684 124.912C159.783 124.912 160.503 124.395 160.844 123.36ZM164.034 125.76C163.82 125.547 163.714 125.285 163.714 124.976C163.714 124.667 163.82 124.405 164.034 124.192C164.247 123.968 164.508 123.856 164.818 123.856C165.127 123.856 165.388 123.968 165.602 124.192C165.826 124.405 165.938 124.667 165.938 124.976C165.938 125.285 165.826 125.547 165.602 125.76C165.388 125.973 165.127 126.08 164.818 126.08C164.508 126.08 164.247 125.973 164.034 125.76ZM171.34 119.456C170.689 119.456 170.135 119.691 169.676 120.16C169.228 120.629 169.004 121.291 169.004 122.144C169.004 122.987 169.228 123.648 169.676 124.128C170.135 124.608 170.695 124.848 171.356 124.848C171.996 124.848 172.481 124.688 172.812 124.368C173.153 124.048 173.383 123.68 173.5 123.264L174.828 123.84C174.615 124.48 174.209 125.04 173.612 125.52C173.025 126 172.273 126.24 171.356 126.24C170.236 126.24 169.308 125.851 168.572 125.072C167.836 124.293 167.468 123.317 167.468 122.144C167.468 120.949 167.836 119.973 168.572 119.216C169.308 118.448 170.231 118.064 171.34 118.064C172.279 118.064 173.036 118.304 173.612 118.784C174.199 119.264 174.583 119.84 174.764 120.512L173.404 121.088C173.287 120.64 173.063 120.256 172.732 119.936C172.401 119.616 171.937 119.456 171.34 119.456ZM178.098 124.176C178.568 124.656 179.138 124.896 179.81 124.896C180.482 124.896 181.048 124.656 181.506 124.176C181.976 123.685 182.21 123.008 182.21 122.144C182.21 121.291 181.976 120.624 181.506 120.144C181.048 119.653 180.482 119.408 179.81 119.408C179.138 119.408 178.568 119.653 178.098 120.144C177.64 120.624 177.41 121.291 177.41 122.144C177.41 123.008 177.64 123.685 178.098 124.176ZM176.978 119.232C177.725 118.453 178.669 118.064 179.81 118.064C180.952 118.064 181.89 118.453 182.626 119.232C183.373 120 183.746 120.971 183.746 122.144C183.746 123.328 183.378 124.309 182.642 125.088C181.906 125.856 180.962 126.24 179.81 126.24C178.658 126.24 177.714 125.856 176.978 125.088C176.242 124.309 175.874 123.328 175.874 122.144C175.874 120.971 176.242 120 176.978 119.232ZM187.159 126H185.671V118.304H187.111V119.328C187.345 118.923 187.676 118.613 188.103 118.4C188.529 118.187 188.977 118.08 189.447 118.08C189.948 118.08 190.407 118.203 190.823 118.448C191.239 118.693 191.548 119.056 191.751 119.536C192.284 118.565 193.143 118.08 194.327 118.08C195.063 118.08 195.687 118.331 196.199 118.832C196.721 119.333 196.983 120.059 196.983 121.008V126H195.495V121.168C195.495 120.635 195.356 120.208 195.079 119.888C194.812 119.568 194.407 119.408 193.863 119.408C193.34 119.408 192.913 119.595 192.583 119.968C192.252 120.331 192.087 120.789 192.087 121.344V126H190.583V121.168C190.583 120.635 190.444 120.208 190.167 119.888C189.9 119.568 189.495 119.408 188.951 119.408C188.417 119.408 187.985 119.589 187.655 119.952C187.324 120.315 187.159 120.784 187.159 121.36V126Z" fill="#3F3232"/>
<path d="M14.727 73.7218L14.7778 73.7686L14.8286 73.7218L17.7333 71.0464L18.8893 72.1111L14.7778 75.898L11.9329 73.2778L13.0889 72.2131L14.727 73.7218ZM1.68889 72.9639H10.0583V74.3694H1.68889C0.795495 74.3694 0.075 73.6973 0.075 72.8889V63.5556C0.075 62.7471 0.795495 62.075 1.68889 62.075H15.2C16.0934 62.075 16.8139 62.7471 16.8139 63.5556V68.925H15.275V65.1111V64.9814L15.1626 65.0461L8.44444 68.9135L1.72631 65.0461L1.61389 64.9814V65.1111V72.8889V72.9639H1.68889ZM15.2374 63.6206L15.4806 63.4806H15.2H1.68889H1.40827L1.65147 63.6206L8.40703 67.5094L8.44444 67.531L8.48186 67.5094L15.2374 63.6206Z" fill="#3F3232" stroke="white" stroke-width="0.15"/>
<g clip-path="url(#clip1_401_5)">
<path fill-rule="evenodd" clip-rule="evenodd" d="M1.08162 117.969H3.72725C3.75912 117.037 3.87387 116.143 4.05875 115.312H1.77863C1.38244 116.147 1.14603 117.048 1.08162 117.969ZM2.39594 114.25H4.34562C4.52271 113.686 4.7503 113.138 5.02563 112.615C5.20934 112.267 5.4215 111.936 5.65994 111.623C4.34347 112.169 3.21084 113.081 2.39594 114.25ZM8.5 110C6.24566 110 4.08365 110.896 2.48959 112.49C0.895533 114.084 0 116.246 0 118.5C0 120.754 0.895533 122.916 2.48959 124.51C4.08365 126.104 6.24566 127 8.5 127C10.7543 127 12.9163 126.104 14.5104 124.51C16.1045 122.916 17 120.754 17 118.5C17 116.246 16.1045 114.084 14.5104 112.49C12.9163 110.896 10.7543 110 8.5 110V110ZM7.96875 111.144C7.25688 111.361 6.55031 112.016 5.96381 113.115C5.78 113.459 5.61319 113.84 5.46656 114.25H7.96875V111.144ZM7.96875 115.312H5.14994C4.94096 116.184 4.82064 117.073 4.79081 117.969H7.96875V115.312ZM9.03125 117.969V115.312H11.8501C12.0487 116.125 12.1752 117.021 12.2092 117.969H9.03125ZM7.96875 119.031H4.79188C4.82135 119.926 4.94132 120.816 5.14994 121.688H7.96875V119.031ZM9.03125 121.688V119.031H12.2081C12.1787 119.926 12.0587 120.816 11.8501 121.688H9.03125ZM7.96875 122.75H5.46656C5.61319 123.16 5.78 123.54 5.96381 123.885C6.55031 124.984 7.25794 125.638 7.96875 125.856V122.75ZM5.65994 125.377C5.42148 125.064 5.20932 124.733 5.02563 124.385C4.7503 123.862 4.52271 123.314 4.34562 122.75H2.39594C3.21084 123.919 4.34347 124.831 5.65994 125.377ZM1.77863 121.688H4.05875C3.86661 120.814 3.75563 119.925 3.72725 119.031H1.08162C1.1475 119.977 1.39081 120.873 1.77863 121.688ZM11.3401 125.377C12.6565 124.831 13.7892 123.919 14.6041 122.75H12.6554C12.4779 123.314 12.25 123.862 11.9744 124.385C11.7907 124.733 11.5785 125.064 11.3401 125.377ZM11.5334 122.75H9.03125V125.856C9.74312 125.639 10.4497 124.984 11.0362 123.885C11.2294 123.519 11.3956 123.14 11.5334 122.75ZM12.9412 121.688H15.2214C15.6092 120.873 15.8525 119.977 15.9184 119.031H13.2727C13.2444 119.925 13.1334 120.814 12.9412 121.688ZM13.2727 117.969H15.9184C15.8539 117.048 15.6175 116.147 15.2214 115.312H12.9412C13.1261 116.143 13.2409 117.037 13.2727 117.969ZM12.6544 114.25C12.4772 113.686 12.2496 113.138 11.9744 112.615C11.7907 112.267 11.5785 111.936 11.3401 111.623C12.6565 112.169 13.7892 113.081 14.6041 114.25H12.6554H12.6544ZM11.5334 114.25H9.03125V111.144C9.74312 111.361 10.4497 112.016 11.0362 113.115C11.22 113.459 11.3868 113.84 11.5334 114.25Z" fill="#3F3232"/>
</g>
<defs>
<clipPath id="clip0_401_5">
<rect width="25" height="25" fill="white" transform="translate(0 4)"/>
</clipPath>
<clipPath id="clip1_401_5">
<rect width="17" height="17" fill="white" transform="translate(0 110)"/>
</clipPath>
</defs>
</svg>
