<svg width="91" height="187" viewBox="0 0 91 187" fill="none" xmlns="http://www.w3.org/2000/svg">
<path d="M7.96 22.26C12.02 22.26 15.22 19.06 15.22 15C15.22 10.94 12.02 7.74 7.96 7.74C3.92 7.74 0.7 10.94 0.7 15C0.7 19.06 3.92 22.26 7.96 22.26ZM7.96 20.02C5.16 20.02 3 17.88 3 15C3 12.12 5.16 9.98 7.96 9.98C10.76 9.98 12.92 12.12 12.92 15C12.92 17.88 10.76 20.02 7.96 20.02ZM23.918 12V17.36C23.918 19.4 22.798 20.24 21.378 20.24C20.018 20.24 19.138 19.44 19.138 17.92V12H16.978V18.14C16.978 20.74 18.578 22.26 20.818 22.26C22.178 22.26 23.258 21.76 23.918 20.72V22H26.078V12H23.918ZM30.7638 13.68V12H28.6038V22H30.7638V16.96C30.7638 14.72 32.4238 14.06 33.8438 14.16V11.82C32.5838 11.82 31.3638 12.32 30.7638 13.68ZM51.3597 11.74C50.0197 11.74 48.9597 12.28 48.2997 13.32C47.7197 12.32 46.7597 11.74 45.4597 11.74C44.2197 11.74 43.2397 12.22 42.5997 13.2V12H40.4397V22H42.5997V16.4C42.5997 14.58 43.5997 13.76 44.8197 13.76C45.9997 13.76 46.6997 14.54 46.6997 15.94V22H48.8597V16.4C48.8597 14.58 49.7597 13.76 51.0397 13.76C52.2197 13.76 52.9797 14.54 52.9797 15.94V22H55.1397V15.8C55.1397 13.3 53.6197 11.74 51.3597 11.74ZM59.1514 17.92H67.1114C67.1514 17.64 67.1914 17.32 67.1914 17.02C67.1914 14.14 65.1514 11.74 62.1714 11.74C59.0314 11.74 56.8914 14.04 56.8914 17C56.8914 20 59.0314 22.26 62.3314 22.26C64.2914 22.26 65.7914 21.44 66.7114 20.08L64.9314 19.04C64.4514 19.74 63.5514 20.28 62.3514 20.28C60.7514 20.28 59.4914 19.48 59.1514 17.92ZM59.1314 16.16C59.4314 14.66 60.5314 13.7 62.1514 13.7C63.4514 13.7 64.7114 14.44 65.0114 16.16H59.1314ZM74.352 11.74C72.992 11.74 71.912 12.24 71.252 13.28V12H69.092V22H71.252V16.64C71.252 14.6 72.372 13.76 73.792 13.76C75.152 13.76 76.032 14.56 76.032 16.08V22H78.192V15.86C78.192 13.26 76.592 11.74 74.352 11.74ZM87.2578 12V17.36C87.2578 19.4 86.1378 20.24 84.7178 20.24C83.3578 20.24 82.4778 19.44 82.4778 17.92V12H80.3178V18.14C80.3178 20.74 81.9178 22.26 84.1578 22.26C85.5178 22.26 86.5978 21.76 87.2578 20.72V22H89.4178V12H87.2578Z" fill="#2E2E2E"/>
<path d="M1.62 59.238H5.778C6.966 59.238 7.902 59.556 8.586 60.192C9.282 60.828 9.63 61.662 9.63 62.694C9.63 63.354 9.456 63.924 9.108 64.404C8.76 64.884 8.298 65.232 7.722 65.448C8.43 65.628 8.988 66.006 9.396 66.582C9.816 67.146 10.026 67.794 10.026 68.526C10.026 69.534 9.66 70.368 8.928 71.028C8.196 71.676 7.248 72 6.084 72H1.62V59.238ZM3.384 64.818H5.58C6.276 64.818 6.828 64.632 7.236 64.26C7.644 63.876 7.848 63.384 7.848 62.784C7.848 62.172 7.638 61.686 7.218 61.326C6.798 60.966 6.228 60.786 5.508 60.786H3.384V64.818ZM3.384 70.452H5.832C6.552 70.452 7.128 70.266 7.56 69.894C8.004 69.522 8.226 69.03 8.226 68.418C8.226 67.782 8.028 67.278 7.632 66.906C7.236 66.522 6.66 66.33 5.904 66.33H3.384V70.452ZM17.0741 63.252V65.052C16.8221 65.016 16.5761 64.998 16.3361 64.998C14.7521 64.998 13.9601 65.886 13.9601 67.662V72H12.2681V63.342H13.9241V64.854C14.4521 63.75 15.3161 63.198 16.5161 63.198C16.7081 63.198 16.8941 63.216 17.0741 63.252ZM19.8876 66.78H24.6216C24.5976 66.132 24.3816 65.604 23.9736 65.196C23.5656 64.776 22.9896 64.566 22.2456 64.566C21.5736 64.566 21.0216 64.788 20.5896 65.232C20.1576 65.664 19.9236 66.18 19.8876 66.78ZM24.8736 69.03L26.3316 69.534C26.0796 70.338 25.6116 70.998 24.9276 71.514C24.2436 72.018 23.4156 72.27 22.4436 72.27C21.2316 72.27 20.1996 71.856 19.3476 71.028C18.5076 70.188 18.0876 69.06 18.0876 67.644C18.0876 66.324 18.4956 65.232 19.3116 64.368C20.1276 63.504 21.0996 63.072 22.2276 63.072C23.5356 63.072 24.5556 63.486 25.2876 64.314C26.0196 65.13 26.3856 66.228 26.3856 67.608C26.3856 67.824 26.3736 68.004 26.3496 68.148H19.8336C19.8456 68.916 20.0976 69.546 20.5896 70.038C21.0936 70.53 21.7116 70.776 22.4436 70.776C23.6796 70.776 24.4896 70.194 24.8736 69.03ZM28.0055 69.678C28.0055 68.934 28.2455 68.34 28.7255 67.896C29.2055 67.44 29.8415 67.158 30.6335 67.05L32.9735 66.708C33.4175 66.648 33.6395 66.432 33.6395 66.06C33.6395 65.604 33.4835 65.232 33.1715 64.944C32.8595 64.656 32.3915 64.512 31.7675 64.512C31.1915 64.512 30.7355 64.674 30.3995 64.998C30.0635 65.31 29.8655 65.73 29.8055 66.258L28.1855 65.88C28.2695 65.052 28.6475 64.38 29.3195 63.864C29.9915 63.336 30.7955 63.072 31.7315 63.072C32.9555 63.072 33.8615 63.372 34.4495 63.972C35.0375 64.56 35.3315 65.316 35.3315 66.24V70.578C35.3315 71.094 35.3675 71.568 35.4395 72H33.7835C33.7235 71.64 33.6935 71.25 33.6935 70.83C33.4535 71.214 33.0995 71.55 32.6315 71.838C32.1755 72.126 31.5995 72.27 30.9035 72.27C30.0515 72.27 29.3555 72.018 28.8155 71.514C28.2755 70.998 28.0055 70.386 28.0055 69.678ZM31.1375 70.848C31.8935 70.848 32.4995 70.644 32.9555 70.236C33.4115 69.828 33.6395 69.18 33.6395 68.292V67.896L30.9935 68.292C30.6095 68.352 30.3035 68.49 30.0755 68.706C29.8475 68.922 29.7335 69.216 29.7335 69.588C29.7335 69.924 29.8595 70.218 30.1115 70.47C30.3755 70.722 30.7175 70.848 31.1375 70.848ZM45.7253 63.342L42.0353 66.996L45.7973 72H43.6733L40.8473 68.184L39.6413 69.39V72H37.9673V58.968H39.6413V67.176L43.3853 63.342H45.7253ZM51.7804 64.872H49.6924V72H47.9464V64.872H46.3444V63.342H47.9464V61.884C47.9464 60.96 48.2164 60.234 48.7564 59.706C49.2964 59.178 49.9744 58.914 50.7904 58.914C51.3064 58.914 51.6424 58.974 51.7984 59.094V60.606C51.6184 60.534 51.3724 60.498 51.0604 60.498C50.6884 60.498 50.3644 60.612 50.0884 60.84C49.8244 61.056 49.6924 61.434 49.6924 61.974V63.342H51.7804V64.872ZM52.7906 69.678C52.7906 68.934 53.0306 68.34 53.5106 67.896C53.9906 67.44 54.6266 67.158 55.4186 67.05L57.7586 66.708C58.2026 66.648 58.4246 66.432 58.4246 66.06C58.4246 65.604 58.2686 65.232 57.9566 64.944C57.6446 64.656 57.1766 64.512 56.5526 64.512C55.9766 64.512 55.5206 64.674 55.1846 64.998C54.8486 65.31 54.6506 65.73 54.5906 66.258L52.9706 65.88C53.0546 65.052 53.4326 64.38 54.1046 63.864C54.7766 63.336 55.5806 63.072 56.5166 63.072C57.7406 63.072 58.6466 63.372 59.2346 63.972C59.8226 64.56 60.1166 65.316 60.1166 66.24V70.578C60.1166 71.094 60.1526 71.568 60.2246 72H58.5686C58.5086 71.64 58.4786 71.25 58.4786 70.83C58.2386 71.214 57.8846 71.55 57.4166 71.838C56.9606 72.126 56.3846 72.27 55.6886 72.27C54.8366 72.27 54.1406 72.018 53.6006 71.514C53.0606 70.998 52.7906 70.386 52.7906 69.678ZM55.9226 70.848C56.6786 70.848 57.2846 70.644 57.7406 70.236C58.1966 69.828 58.4246 69.18 58.4246 68.292V67.896L55.7786 68.292C55.3946 68.352 55.0886 68.49 54.8606 68.706C54.6326 68.922 54.5186 69.216 54.5186 69.588C54.5186 69.924 54.6446 70.218 54.8966 70.47C55.1606 70.722 55.5026 70.848 55.9226 70.848ZM61.9425 69.75L63.4725 69.21C63.5325 69.678 63.7365 70.068 64.0845 70.38C64.4325 70.68 64.9005 70.83 65.4885 70.83C65.9445 70.83 66.3045 70.722 66.5685 70.506C66.8325 70.278 66.9645 70.002 66.9645 69.678C66.9645 69.102 66.5925 68.73 65.8485 68.562L64.3725 68.238C63.7005 68.094 63.1725 67.806 62.7885 67.374C62.4045 66.942 62.2125 66.42 62.2125 65.808C62.2125 65.064 62.5125 64.422 63.1125 63.882C63.7245 63.342 64.4505 63.072 65.2905 63.072C65.8425 63.072 66.3345 63.156 66.7665 63.324C67.1985 63.48 67.5345 63.69 67.7745 63.954C68.0145 64.218 68.1945 64.464 68.3145 64.692C68.4345 64.92 68.5245 65.154 68.5845 65.394L67.0905 65.952C67.0665 65.808 67.0245 65.67 66.9645 65.538C66.9045 65.394 66.8085 65.238 66.6765 65.07C66.5565 64.902 66.3765 64.77 66.1365 64.674C65.8965 64.566 65.6145 64.512 65.2905 64.512C64.8705 64.512 64.5225 64.626 64.2465 64.854C63.9825 65.082 63.8505 65.352 63.8505 65.664C63.8505 66.216 64.1805 66.564 64.8405 66.708L66.2445 67.014C67.0125 67.182 67.6005 67.494 68.0085 67.95C68.4285 68.394 68.6385 68.94 68.6385 69.588C68.6385 70.272 68.3565 70.89 67.7925 71.442C67.2405 71.994 66.4665 72.27 65.4705 72.27C64.4025 72.27 63.5685 72.006 62.9685 71.478C62.3685 70.938 62.0265 70.362 61.9425 69.75ZM73.1592 60.606V63.342H75.0312V64.872H73.1592V69.372C73.1592 69.78 73.2492 70.08 73.4292 70.272C73.6212 70.464 73.9332 70.56 74.3652 70.56C74.6172 70.56 74.8392 70.536 75.0312 70.488V71.928C74.7432 72.036 74.3592 72.09 73.8792 72.09C73.1352 72.09 72.5472 71.874 72.1152 71.442C71.6832 71.01 71.4672 70.404 71.4672 69.624V64.872H69.8112V63.342H70.2792C70.7232 63.342 71.0532 63.222 71.2692 62.982C71.4972 62.73 71.6112 62.406 71.6112 62.01V60.606H73.1592Z" fill="#6A5C5C"/>
<path d="M9.414 124H1.62V111.238H3.384V122.344H9.414V124ZM17.0073 122.956C16.7793 123.388 16.4313 123.718 15.9633 123.946C15.4953 124.162 14.9913 124.27 14.4513 124.27C13.4673 124.27 12.6813 123.946 12.0933 123.298C11.5053 122.638 11.2113 121.804 11.2113 120.796V115.342H12.9033V120.544C12.9033 121.192 13.0593 121.726 13.3713 122.146C13.6953 122.566 14.1933 122.776 14.8653 122.776C15.5373 122.776 16.0473 122.578 16.3953 122.182C16.7433 121.774 16.9173 121.234 16.9173 120.562V115.342H18.6093V122.398C18.6093 122.962 18.6393 123.496 18.6993 124H17.0793C17.0313 123.736 17.0073 123.388 17.0073 122.956ZM23.1886 118.996V124H21.4966V115.342H23.1526V116.584C23.7286 115.588 24.6166 115.09 25.8166 115.09C26.8126 115.09 27.5746 115.408 28.1026 116.044C28.6426 116.68 28.9126 117.502 28.9126 118.51V124H27.2206V118.798C27.2206 117.346 26.5486 116.62 25.2046 116.62C24.5686 116.62 24.0706 116.848 23.7106 117.304C23.3626 117.748 23.1886 118.312 23.1886 118.996ZM35.2401 116.638C34.5081 116.638 33.8841 116.902 33.3681 117.43C32.8641 117.958 32.6121 118.702 32.6121 119.662C32.6121 120.61 32.8641 121.354 33.3681 121.894C33.8841 122.434 34.5141 122.704 35.2581 122.704C35.9781 122.704 36.5241 122.524 36.8961 122.164C37.2801 121.804 37.5381 121.39 37.6701 120.922L39.1641 121.57C38.9241 122.29 38.4681 122.92 37.7961 123.46C37.1361 124 36.2901 124.27 35.2581 124.27C33.9981 124.27 32.9541 123.832 32.1261 122.956C31.2981 122.08 30.8841 120.982 30.8841 119.662C30.8841 118.318 31.2981 117.22 32.1261 116.368C32.9541 115.504 33.9921 115.072 35.2401 115.072C36.2961 115.072 37.1481 115.342 37.7961 115.882C38.4561 116.422 38.8881 117.07 39.0921 117.826L37.5621 118.474C37.4301 117.97 37.1781 117.538 36.8061 117.178C36.4341 116.818 35.9121 116.638 35.2401 116.638ZM42.1591 118.78H46.8931C46.8691 118.132 46.6531 117.604 46.2451 117.196C45.8371 116.776 45.2611 116.566 44.5171 116.566C43.8451 116.566 43.2931 116.788 42.8611 117.232C42.4291 117.664 42.1951 118.18 42.1591 118.78ZM47.1451 121.03L48.6031 121.534C48.3511 122.338 47.8831 122.998 47.1991 123.514C46.5151 124.018 45.6871 124.27 44.7151 124.27C43.5031 124.27 42.4711 123.856 41.6191 123.028C40.7791 122.188 40.3591 121.06 40.3591 119.644C40.3591 118.324 40.7671 117.232 41.5831 116.368C42.3991 115.504 43.3711 115.072 44.4991 115.072C45.8071 115.072 46.8271 115.486 47.5591 116.314C48.2911 117.13 48.6571 118.228 48.6571 119.608C48.6571 119.824 48.6451 120.004 48.6211 120.148H42.1051C42.1171 120.916 42.3691 121.546 42.8611 122.038C43.3651 122.53 43.9831 122.776 44.7151 122.776C45.9511 122.776 46.7611 122.194 47.1451 121.03Z" fill="#6A5C5C"/>
<path d="M3.384 177.434H5.994C7.242 177.434 8.274 177.02 9.09 176.192C9.918 175.364 10.332 174.182 10.332 172.646C10.332 171.098 9.924 169.904 9.108 169.064C8.304 168.224 7.278 167.804 6.03 167.804H3.384V177.434ZM6.048 179H1.62V166.238H6.084C7.8 166.238 9.24 166.808 10.404 167.948C11.568 169.076 12.15 170.642 12.15 172.646C12.15 174.638 11.562 176.198 10.386 177.326C9.21 178.442 7.764 179 6.048 179ZM16.0691 179H14.3951V170.342H16.0691V179ZM14.3591 167.93C14.1311 167.69 14.0171 167.402 14.0171 167.066C14.0171 166.73 14.1311 166.442 14.3591 166.202C14.5991 165.962 14.8871 165.842 15.2231 165.842C15.5591 165.842 15.8471 165.962 16.0871 166.202C16.3271 166.43 16.4471 166.718 16.4471 167.066C16.4471 167.402 16.3271 167.69 16.0871 167.93C15.8471 168.158 15.5591 168.272 15.2231 168.272C14.8871 168.272 14.5991 168.158 14.3591 167.93ZM20.6398 173.996V179H18.9478V170.342H20.6038V171.584C21.1798 170.588 22.0678 170.09 23.2678 170.09C24.2638 170.09 25.0258 170.408 25.5538 171.044C26.0938 171.68 26.3638 172.502 26.3638 173.51V179H24.6718V173.798C24.6718 172.346 23.9998 171.62 22.6558 171.62C22.0198 171.62 21.5218 171.848 21.1618 172.304C20.8138 172.748 20.6398 173.312 20.6398 173.996ZM30.7472 173.996V179H29.0552V170.342H30.7112V171.584C31.2872 170.588 32.1752 170.09 33.3752 170.09C34.3712 170.09 35.1332 170.408 35.6612 171.044C36.2012 171.68 36.4712 172.502 36.4712 173.51V179H34.7792V173.798C34.7792 172.346 34.1072 171.62 32.7632 171.62C32.1272 171.62 31.6292 171.848 31.2692 172.304C30.9212 172.748 30.7472 173.312 30.7472 173.996ZM40.2607 173.78H44.9947C44.9707 173.132 44.7547 172.604 44.3467 172.196C43.9387 171.776 43.3627 171.566 42.6187 171.566C41.9467 171.566 41.3947 171.788 40.9627 172.232C40.5307 172.664 40.2967 173.18 40.2607 173.78ZM45.2467 176.03L46.7047 176.534C46.4527 177.338 45.9847 177.998 45.3007 178.514C44.6167 179.018 43.7887 179.27 42.8167 179.27C41.6047 179.27 40.5727 178.856 39.7207 178.028C38.8807 177.188 38.4607 176.06 38.4607 174.644C38.4607 173.324 38.8687 172.232 39.6847 171.368C40.5007 170.504 41.4727 170.072 42.6007 170.072C43.9087 170.072 44.9287 170.486 45.6607 171.314C46.3927 172.13 46.7587 173.228 46.7587 174.608C46.7587 174.824 46.7467 175.004 46.7227 175.148H40.2067C40.2187 175.916 40.4707 176.546 40.9627 177.038C41.4667 177.53 42.0847 177.776 42.8167 177.776C44.0527 177.776 44.8627 177.194 45.2467 176.03ZM53.7245 170.252V172.052C53.4725 172.016 53.2265 171.998 52.9865 171.998C51.4025 171.998 50.6105 172.886 50.6105 174.662V179H48.9185V170.342H50.5745V171.854C51.1025 170.75 51.9665 170.198 53.1665 170.198C53.3585 170.198 53.5445 170.216 53.7245 170.252Z" fill="#6A5C5C"/>
</svg>
