<svg width="106" height="187" viewBox="0 0 106 187" fill="none" xmlns="http://www.w3.org/2000/svg">
<path d="M6.56 22.26C9.62 22.26 11.86 20.38 11.86 17.36V8H9.56V17.22C9.56 18.86 8.62 20.02 6.56 20.02C4.5 20.02 3.56 18.86 3.56 17.22V8H1.26V17.36C1.26 20.38 3.48 22.26 6.56 22.26ZM16.1883 14.76C16.1883 14.04 16.8683 13.7 17.6483 13.7C18.4683 13.7 19.1683 14.06 19.5283 14.84L21.3483 13.82C20.6483 12.5 19.2883 11.74 17.6483 11.74C15.6083 11.74 13.9883 12.92 13.9883 14.8C13.9883 18.38 19.3683 17.38 19.3683 19.16C19.3683 19.96 18.6283 20.28 17.6683 20.28C16.5683 20.28 15.7683 19.74 15.4483 18.84L13.5883 19.92C14.2283 21.36 15.6683 22.26 17.6683 22.26C19.8283 22.26 21.5683 21.18 21.5683 19.18C21.5683 15.48 16.1883 16.58 16.1883 14.76ZM24.9131 17.92H32.8731C32.9131 17.64 32.9531 17.32 32.9531 17.02C32.9531 14.14 30.9131 11.74 27.9331 11.74C24.7931 11.74 22.6531 14.04 22.6531 17C22.6531 20 24.7931 22.26 28.0931 22.26C30.0531 22.26 31.5531 21.44 32.4731 20.08L30.6931 19.04C30.2131 19.74 29.3131 20.28 28.1131 20.28C26.5131 20.28 25.2531 19.48 24.9131 17.92ZM24.8931 16.16C25.1931 14.66 26.2931 13.7 27.9131 13.7C29.2131 13.7 30.4731 14.44 30.7731 16.16H24.8931ZM39.7813 9.82V7.74C36.7813 7.54 35.2613 9.1 35.2613 11.8V12H33.7413V14.08H35.2613V22H37.4213V14.08H39.7813V12H37.4213V11.8C37.4213 10.26 38.2613 9.68 39.7813 9.82ZM47.7852 12V17.36C47.7852 19.4 46.6652 20.24 45.2452 20.24C43.8852 20.24 43.0052 19.44 43.0052 17.92V12H40.8452V18.14C40.8452 20.74 42.4452 22.26 44.6852 22.26C46.0452 22.26 47.1252 21.76 47.7852 20.72V22H49.9452V12H47.7852ZM52.4709 22H54.6309V7.4H52.4709V22ZM64.5789 19.8V8H62.2789V22H70.2789V19.8H64.5789ZM72.9259 10.5C73.6859 10.5 74.3059 9.86 74.3059 9.12C74.3059 8.36 73.6859 7.74 72.9259 7.74C72.1659 7.74 71.5459 8.36 71.5459 9.12C71.5459 9.86 72.1659 10.5 72.9259 10.5ZM71.8459 22H74.0059V12H71.8459V22ZM81.7739 11.74C80.4139 11.74 79.3339 12.24 78.6739 13.28V12H76.5139V22H78.6739V16.64C78.6739 14.6 79.7939 13.76 81.2139 13.76C82.5739 13.76 83.4539 14.56 83.4539 16.08V22H85.6139V15.86C85.6139 13.26 84.0139 11.74 81.7739 11.74ZM96.7797 22L92.2197 16.9L96.6197 12H93.9797L90.0997 16.42V8H87.9397V22H90.0997V17.38L94.1997 22H96.7797ZM99.4695 14.76C99.4695 14.04 100.15 13.7 100.93 13.7C101.75 13.7 102.45 14.06 102.81 14.84L104.63 13.82C103.93 12.5 102.57 11.74 100.93 11.74C98.8895 11.74 97.2695 12.92 97.2695 14.8C97.2695 18.38 102.65 17.38 102.65 19.16C102.65 19.96 101.91 20.28 100.95 20.28C99.8495 20.28 99.0495 19.74 98.7295 18.84L96.8695 19.92C97.5095 21.36 98.9495 22.26 100.95 22.26C103.11 22.26 104.85 21.18 104.85 19.18C104.85 15.48 99.4695 16.58 99.4695 14.76Z" fill="#2E2E2E"/>
<path d="M8.672 63.232L7.264 63.728C7.18933 63.2373 6.94933 62.7947 6.544 62.4C6.13867 61.9947 5.57867 61.792 4.864 61.792C4.23467 61.792 3.712 61.9733 3.296 62.336C2.88 62.6987 2.672 63.1467 2.672 63.68C2.672 64.096 2.79467 64.448 3.04 64.736C3.296 65.024 3.65867 65.2213 4.128 65.328L5.824 65.696C6.76267 65.8987 7.488 66.2827 8 66.848C8.512 67.4027 8.768 68.08 8.768 68.88C8.768 69.7973 8.40533 70.5867 7.68 71.248C6.95467 71.9093 6.01067 72.24 4.848 72.24C3.57867 72.24 2.58133 71.9093 1.856 71.248C1.14133 70.576 0.725333 69.7813 0.608 68.864L2.112 68.384C2.176 69.0667 2.44267 69.6427 2.912 70.112C3.38133 70.5813 4.02133 70.816 4.832 70.816C5.57867 70.816 6.15467 70.6453 6.56 70.304C6.96533 69.9627 7.168 69.5307 7.168 69.008C7.168 68.5813 7.024 68.2133 6.736 67.904C6.448 67.584 6.02667 67.3653 5.472 67.248L3.856 66.896C3.01333 66.7147 2.34133 66.3573 1.84 65.824C1.33867 65.2907 1.088 64.6133 1.088 63.792C1.088 62.896 1.45067 62.112 2.176 61.44C2.912 60.7573 3.79733 60.416 4.832 60.416C5.99467 60.416 6.88533 60.6987 7.504 61.264C8.12267 61.8293 8.512 62.4853 8.672 63.232ZM11.7404 67.36H15.9484C15.927 66.784 15.735 66.3147 15.3724 65.952C15.0097 65.5787 14.4977 65.392 13.8364 65.392C13.239 65.392 12.7484 65.5893 12.3644 65.984C11.9804 66.368 11.7724 66.8267 11.7404 67.36ZM16.1724 69.36L17.4684 69.808C17.2444 70.5227 16.8284 71.1093 16.2204 71.568C15.6124 72.016 14.8764 72.24 14.0124 72.24C12.935 72.24 12.0177 71.872 11.2604 71.136C10.5137 70.3893 10.1404 69.3867 10.1404 68.128C10.1404 66.9547 10.503 65.984 11.2284 65.216C11.9537 64.448 12.8177 64.064 13.8204 64.064C14.983 64.064 15.8897 64.432 16.5404 65.168C17.191 65.8933 17.5164 66.8693 17.5164 68.096C17.5164 68.288 17.5057 68.448 17.4844 68.576H11.6924C11.703 69.2587 11.927 69.8187 12.3644 70.256C12.8124 70.6933 13.3617 70.912 14.0124 70.912C15.111 70.912 15.831 70.3947 16.1724 69.36ZM23.7083 64.224V65.824C23.4843 65.792 23.2656 65.776 23.0523 65.776C21.6443 65.776 20.9403 66.5653 20.9403 68.144V72H19.4363V64.304H20.9083V65.648C21.3776 64.6667 22.1456 64.176 23.2123 64.176C23.3829 64.176 23.5483 64.192 23.7083 64.224ZM32.1376 64.304L29.0656 72H27.5456L24.4256 64.304H26.1216L28.3136 70.24L30.5216 64.304H32.1376ZM35.0649 72H33.5769V64.304H35.0649V72ZM33.5449 62.16C33.3422 61.9467 33.2409 61.6907 33.2409 61.392C33.2409 61.0933 33.3422 60.8373 33.5449 60.624C33.7582 60.4107 34.0142 60.304 34.3129 60.304C34.6115 60.304 34.8675 60.4107 35.0809 60.624C35.2942 60.8267 35.4009 61.0827 35.4009 61.392C35.4009 61.6907 35.2942 61.9467 35.0809 62.16C34.8675 62.3627 34.6115 62.464 34.3129 62.464C34.0142 62.464 33.7582 62.3627 33.5449 62.16ZM40.8558 65.456C40.2051 65.456 39.6504 65.6907 39.1918 66.16C38.7438 66.6293 38.5198 67.2907 38.5198 68.144C38.5198 68.9867 38.7438 69.648 39.1918 70.128C39.6504 70.608 40.2104 70.848 40.8718 70.848C41.5118 70.848 41.9971 70.688 42.3278 70.368C42.6691 70.048 42.8984 69.68 43.0158 69.264L44.3438 69.84C44.1304 70.48 43.7251 71.04 43.1278 71.52C42.5411 72 41.7891 72.24 40.8718 72.24C39.7518 72.24 38.8238 71.8507 38.0878 71.072C37.3518 70.2933 36.9838 69.3173 36.9838 68.144C36.9838 66.9493 37.3518 65.9733 38.0878 65.216C38.8238 64.448 39.7464 64.064 40.8558 64.064C41.7944 64.064 42.5518 64.304 43.1278 64.784C43.7144 65.264 44.0984 65.84 44.2798 66.512L42.9198 67.088C42.8024 66.64 42.5784 66.256 42.2478 65.936C41.9171 65.616 41.4531 65.456 40.8558 65.456ZM47.006 67.36H51.214C51.1927 66.784 51.0007 66.3147 50.638 65.952C50.2753 65.5787 49.7633 65.392 49.102 65.392C48.5047 65.392 48.014 65.5893 47.63 65.984C47.246 66.368 47.038 66.8267 47.006 67.36ZM51.438 69.36L52.734 69.808C52.51 70.5227 52.094 71.1093 51.486 71.568C50.878 72.016 50.142 72.24 49.278 72.24C48.2007 72.24 47.2833 71.872 46.526 71.136C45.7793 70.3893 45.406 69.3867 45.406 68.128C45.406 66.9547 45.7687 65.984 46.494 65.216C47.2193 64.448 48.0833 64.064 49.086 64.064C50.2487 64.064 51.1553 64.432 51.806 65.168C52.4567 65.8933 52.782 66.8693 52.782 68.096C52.782 68.288 52.7713 68.448 52.75 68.576H46.958C46.9687 69.2587 47.1927 69.8187 47.63 70.256C48.078 70.6933 48.6273 70.912 49.278 70.912C50.3767 70.912 51.0967 70.3947 51.438 69.36ZM53.9819 70L55.3419 69.52C55.3952 69.936 55.5765 70.2827 55.8859 70.56C56.1952 70.8267 56.6112 70.96 57.1339 70.96C57.5392 70.96 57.8592 70.864 58.0939 70.672C58.3285 70.4693 58.4459 70.224 58.4459 69.936C58.4459 69.424 58.1152 69.0933 57.4539 68.944L56.1419 68.656C55.5445 68.528 55.0752 68.272 54.7339 67.888C54.3925 67.504 54.2219 67.04 54.2219 66.496C54.2219 65.8347 54.4885 65.264 55.0219 64.784C55.5659 64.304 56.2112 64.064 56.9579 64.064C57.4485 64.064 57.8859 64.1387 58.2699 64.288C58.6539 64.4267 58.9525 64.6133 59.1659 64.848C59.3792 65.0827 59.5392 65.3013 59.6459 65.504C59.7525 65.7067 59.8325 65.9147 59.8859 66.128L58.5579 66.624C58.5365 66.496 58.4992 66.3733 58.4459 66.256C58.3925 66.128 58.3072 65.9893 58.1899 65.84C58.0832 65.6907 57.9232 65.5733 57.7099 65.488C57.4965 65.392 57.2459 65.344 56.9579 65.344C56.5845 65.344 56.2752 65.4453 56.0299 65.648C55.7952 65.8507 55.6779 66.0907 55.6779 66.368C55.6779 66.8587 55.9712 67.168 56.5579 67.296L57.8059 67.568C58.4885 67.7173 59.0112 67.9947 59.3739 68.4C59.7472 68.7947 59.9339 69.28 59.9339 69.856C59.9339 70.464 59.6832 71.0133 59.1819 71.504C58.6912 71.9947 58.0032 72.24 57.1179 72.24C56.1685 72.24 55.4272 72.0053 54.8939 71.536C54.3605 71.056 54.0565 70.544 53.9819 70Z" fill="#6A5C5C"/>
<path d="M8.672 115.232L7.264 115.728C7.18933 115.237 6.94933 114.795 6.544 114.4C6.13867 113.995 5.57867 113.792 4.864 113.792C4.23467 113.792 3.712 113.973 3.296 114.336C2.88 114.699 2.672 115.147 2.672 115.68C2.672 116.096 2.79467 116.448 3.04 116.736C3.296 117.024 3.65867 117.221 4.128 117.328L5.824 117.696C6.76267 117.899 7.488 118.283 8 118.848C8.512 119.403 8.768 120.08 8.768 120.88C8.768 121.797 8.40533 122.587 7.68 123.248C6.95467 123.909 6.01067 124.24 4.848 124.24C3.57867 124.24 2.58133 123.909 1.856 123.248C1.14133 122.576 0.725333 121.781 0.608 120.864L2.112 120.384C2.176 121.067 2.44267 121.643 2.912 122.112C3.38133 122.581 4.02133 122.816 4.832 122.816C5.57867 122.816 6.15467 122.645 6.56 122.304C6.96533 121.963 7.168 121.531 7.168 121.008C7.168 120.581 7.024 120.213 6.736 119.904C6.448 119.584 6.02667 119.365 5.472 119.248L3.856 118.896C3.01333 118.715 2.34133 118.357 1.84 117.824C1.33867 117.291 1.088 116.613 1.088 115.792C1.088 114.896 1.45067 114.112 2.176 113.44C2.912 112.757 3.79733 112.416 4.832 112.416C5.99467 112.416 6.88533 112.699 7.504 113.264C8.12267 113.829 8.512 114.485 8.672 115.232ZM15.8364 123.072C15.6337 123.456 15.3244 123.749 14.9084 123.952C14.4924 124.144 14.0444 124.24 13.5644 124.24C12.6897 124.24 11.991 123.952 11.4684 123.376C10.9457 122.789 10.6844 122.048 10.6844 121.152V116.304H12.1884V120.928C12.1884 121.504 12.327 121.979 12.6044 122.352C12.8924 122.725 13.335 122.912 13.9324 122.912C14.5297 122.912 14.983 122.736 15.2924 122.384C15.6017 122.021 15.7564 121.541 15.7564 120.944V116.304H17.2604V122.576C17.2604 123.077 17.287 123.552 17.3404 124H15.9004C15.8577 123.765 15.8364 123.456 15.8364 123.072ZM21.3149 127.04H19.8269V116.304H21.2829V117.504C21.5069 117.099 21.8429 116.768 22.2909 116.512C22.7389 116.256 23.2615 116.128 23.8589 116.128C24.9682 116.128 25.8322 116.507 26.4509 117.264C27.0802 118.021 27.3949 118.981 27.3949 120.144C27.3949 121.317 27.0695 122.288 26.4189 123.056C25.7789 123.824 24.9095 124.208 23.8109 124.208C23.2455 124.208 22.7442 124.091 22.3069 123.856C21.8695 123.621 21.5389 123.323 21.3149 122.96V127.04ZM25.8589 120.144C25.8589 119.365 25.6509 118.725 25.2349 118.224C24.8295 117.712 24.2802 117.456 23.5869 117.456C22.9042 117.456 22.3495 117.712 21.9229 118.224C21.5069 118.725 21.2989 119.365 21.2989 120.144C21.2989 120.944 21.5069 121.6 21.9229 122.112C22.3495 122.613 22.9042 122.864 23.5869 122.864C24.2695 122.864 24.8189 122.613 25.2349 122.112C25.6509 121.6 25.8589 120.944 25.8589 120.144ZM30.7993 127.04H29.3113V116.304H30.7673V117.504C30.9913 117.099 31.3273 116.768 31.7753 116.512C32.2233 116.256 32.7459 116.128 33.3433 116.128C34.4526 116.128 35.3166 116.507 35.9353 117.264C36.5646 118.021 36.8793 118.981 36.8793 120.144C36.8793 121.317 36.5539 122.288 35.9033 123.056C35.2633 123.824 34.3939 124.208 33.2953 124.208C32.7299 124.208 32.2286 124.091 31.7913 123.856C31.3539 123.621 31.0233 123.323 30.7993 122.96V127.04ZM35.3433 120.144C35.3433 119.365 35.1353 118.725 34.7193 118.224C34.3139 117.712 33.7646 117.456 33.0713 117.456C32.3886 117.456 31.8339 117.712 31.4073 118.224C30.9913 118.725 30.7833 119.365 30.7833 120.144C30.7833 120.944 30.9913 121.6 31.4073 122.112C31.8339 122.613 32.3886 122.864 33.0713 122.864C33.7539 122.864 34.3033 122.613 34.7193 122.112C35.1353 121.6 35.3433 120.944 35.3433 120.144ZM40.3796 122.176C40.849 122.656 41.4196 122.896 42.0916 122.896C42.7636 122.896 43.329 122.656 43.7876 122.176C44.257 121.685 44.4916 121.008 44.4916 120.144C44.4916 119.291 44.257 118.624 43.7876 118.144C43.329 117.653 42.7636 117.408 42.0916 117.408C41.4196 117.408 40.849 117.653 40.3796 118.144C39.921 118.624 39.6916 119.291 39.6916 120.144C39.6916 121.008 39.921 121.685 40.3796 122.176ZM39.2596 117.232C40.0063 116.453 40.9503 116.064 42.0916 116.064C43.233 116.064 44.1716 116.453 44.9076 117.232C45.6543 118 46.0276 118.971 46.0276 120.144C46.0276 121.328 45.6596 122.309 44.9236 123.088C44.1876 123.856 43.2436 124.24 42.0916 124.24C40.9396 124.24 39.9956 123.856 39.2596 123.088C38.5236 122.309 38.1556 121.328 38.1556 120.144C38.1556 118.971 38.5236 118 39.2596 117.232ZM52.2239 116.224V117.824C51.9999 117.792 51.7812 117.776 51.5679 117.776C50.1599 117.776 49.4559 118.565 49.4559 120.144V124H47.9519V116.304H49.4239V117.648C49.8932 116.667 50.6612 116.176 51.7279 116.176C51.8985 116.176 52.0639 116.192 52.2239 116.224ZM56.2491 113.872V116.304H57.9131V117.664H56.2491V121.664C56.2491 122.027 56.3291 122.293 56.4891 122.464C56.6598 122.635 56.9371 122.72 57.3211 122.72C57.5451 122.72 57.7425 122.699 57.9131 122.656V123.936C57.6571 124.032 57.3158 124.08 56.8891 124.08C56.2278 124.08 55.7051 123.888 55.3211 123.504C54.9371 123.12 54.7451 122.581 54.7451 121.888V117.664H53.2731V116.304H53.6891C54.0838 116.304 54.3771 116.197 54.5691 115.984C54.7718 115.76 54.8731 115.472 54.8731 115.12V113.872H56.2491Z" fill="#6A5C5C"/>
<path d="M6.352 178.24C4.80533 178.24 3.47733 177.707 2.368 176.64C1.26933 175.573 0.72 174.133 0.72 172.32C0.72 171.104 0.997333 170.037 1.552 169.12C2.10667 168.203 2.80533 167.525 3.648 167.088C4.49067 166.64 5.392 166.416 6.352 166.416C7.632 166.416 8.70933 166.741 9.584 167.392C10.4693 168.032 11.056 168.907 11.344 170.016L9.888 170.528C9.67467 169.675 9.264 169.019 8.656 168.56C8.048 168.091 7.28 167.856 6.352 167.856C5.24267 167.856 4.29333 168.251 3.504 169.04C2.71467 169.819 2.32 170.912 2.32 172.32C2.32 173.728 2.71467 174.827 3.504 175.616C4.29333 176.405 5.24267 176.8 6.352 176.8C7.28 176.8 8.05333 176.555 8.672 176.064C9.29067 175.563 9.72267 174.901 9.968 174.08L11.36 174.592C11.0507 175.691 10.4533 176.576 9.568 177.248C8.69333 177.909 7.62133 178.24 6.352 178.24ZM14.864 176.176C15.3333 176.656 15.904 176.896 16.576 176.896C17.248 176.896 17.8133 176.656 18.272 176.176C18.7413 175.685 18.976 175.008 18.976 174.144C18.976 173.291 18.7413 172.624 18.272 172.144C17.8133 171.653 17.248 171.408 16.576 171.408C15.904 171.408 15.3333 171.653 14.864 172.144C14.4053 172.624 14.176 173.291 14.176 174.144C14.176 175.008 14.4053 175.685 14.864 176.176ZM13.744 171.232C14.4907 170.453 15.4347 170.064 16.576 170.064C17.7173 170.064 18.656 170.453 19.392 171.232C20.1387 172 20.512 172.971 20.512 174.144C20.512 175.328 20.144 176.309 19.408 177.088C18.672 177.856 17.728 178.24 16.576 178.24C15.424 178.24 14.48 177.856 13.744 177.088C13.008 176.309 12.64 175.328 12.64 174.144C12.64 172.971 13.008 172 13.744 171.232ZM23.9403 173.552V178H22.4363V170.304H23.9083V171.408C24.4203 170.523 25.2096 170.08 26.2763 170.08C27.1616 170.08 27.8389 170.363 28.3083 170.928C28.7883 171.493 29.0283 172.224 29.0283 173.12V178H27.5243V173.376C27.5243 172.085 26.9269 171.44 25.7323 171.44C25.1669 171.44 24.7243 171.643 24.4043 172.048C24.0949 172.443 23.9403 172.944 23.9403 173.552ZM32.3166 174.128C32.3166 174.939 32.514 175.6 32.9086 176.112C33.314 176.624 33.8686 176.88 34.5726 176.88C35.2446 176.88 35.7833 176.619 36.1886 176.096C36.594 175.573 36.7966 174.907 36.7966 174.096C36.7966 173.296 36.5993 172.651 36.2046 172.16C35.81 171.669 35.2713 171.424 34.5886 171.424C33.906 171.424 33.3566 171.675 32.9406 172.176C32.5246 172.677 32.3166 173.328 32.3166 174.128ZM36.8126 176.96V176.832C36.61 177.227 36.3006 177.557 35.8846 177.824C35.4793 178.08 34.994 178.208 34.4286 178.208C33.33 178.208 32.4446 177.824 31.7726 177.056C31.1113 176.277 30.7806 175.301 30.7806 174.128C30.7806 173.008 31.122 172.059 31.8046 171.28C32.4873 170.491 33.362 170.096 34.4286 170.096C35.058 170.096 35.57 170.224 35.9646 170.48C36.3593 170.725 36.6313 171.029 36.7806 171.392V166.416H38.2686V176.576C38.2686 177.099 38.2953 177.573 38.3486 178H36.8926C36.8393 177.701 36.8126 177.355 36.8126 176.96ZM42.3149 178H40.8269V170.304H42.3149V178ZM40.7949 168.16C40.5922 167.947 40.4909 167.691 40.4909 167.392C40.4909 167.093 40.5922 166.837 40.7949 166.624C41.0082 166.411 41.2642 166.304 41.5629 166.304C41.8615 166.304 42.1175 166.411 42.3309 166.624C42.5442 166.827 42.6509 167.083 42.6509 167.392C42.6509 167.691 42.5442 167.947 42.3309 168.16C42.1175 168.363 41.8615 168.464 41.5629 168.464C41.2642 168.464 41.0082 168.363 40.7949 168.16ZM46.8898 167.872V170.304H48.5538V171.664H46.8898V175.664C46.8898 176.027 46.9698 176.293 47.1298 176.464C47.3004 176.635 47.5778 176.72 47.9618 176.72C48.1858 176.72 48.3831 176.699 48.5538 176.656V177.936C48.2978 178.032 47.9564 178.08 47.5298 178.08C46.8684 178.08 46.3458 177.888 45.9618 177.504C45.5778 177.12 45.3858 176.581 45.3858 175.888V171.664H43.9138V170.304H44.3298C44.7244 170.304 45.0178 170.197 45.2098 169.984C45.4124 169.76 45.5138 169.472 45.5138 169.12V167.872H46.8898ZM52.0493 178H50.5613V170.304H52.0493V178ZM50.5293 168.16C50.3266 167.947 50.2253 167.691 50.2253 167.392C50.2253 167.093 50.3266 166.837 50.5293 166.624C50.7426 166.411 50.9986 166.304 51.2973 166.304C51.5959 166.304 51.8519 166.411 52.0653 166.624C52.2786 166.827 52.3853 167.083 52.3853 167.392C52.3853 167.691 52.2786 167.947 52.0653 168.16C51.8519 168.363 51.5959 168.464 51.2973 168.464C50.9986 168.464 50.7426 168.363 50.5293 168.16ZM56.1921 176.176C56.6615 176.656 57.2321 176.896 57.9041 176.896C58.5761 176.896 59.1415 176.656 59.6001 176.176C60.0695 175.685 60.3041 175.008 60.3041 174.144C60.3041 173.291 60.0695 172.624 59.6001 172.144C59.1415 171.653 58.5761 171.408 57.9041 171.408C57.2321 171.408 56.6615 171.653 56.1921 172.144C55.7335 172.624 55.5041 173.291 55.5041 174.144C55.5041 175.008 55.7335 175.685 56.1921 176.176ZM55.0721 171.232C55.8188 170.453 56.7628 170.064 57.9041 170.064C59.0455 170.064 59.9841 170.453 60.7201 171.232C61.4668 172 61.8401 172.971 61.8401 174.144C61.8401 175.328 61.4721 176.309 60.7361 177.088C60.0001 177.856 59.0561 178.24 57.9041 178.24C56.7521 178.24 55.8081 177.856 55.0721 177.088C54.3361 176.309 53.9681 175.328 53.9681 174.144C53.9681 172.971 54.3361 172 55.0721 171.232ZM65.2684 173.552V178H63.7644V170.304H65.2364V171.408C65.7484 170.523 66.5377 170.08 67.6044 170.08C68.4897 170.08 69.167 170.363 69.6364 170.928C70.1164 171.493 70.3564 172.224 70.3564 173.12V178H68.8524V173.376C68.8524 172.085 68.255 171.44 67.0604 171.44C66.495 171.44 66.0524 171.643 65.7324 172.048C65.423 172.443 65.2684 172.944 65.2684 173.552ZM72.0288 176L73.3888 175.52C73.4421 175.936 73.6234 176.283 73.9328 176.56C74.2421 176.827 74.6581 176.96 75.1808 176.96C75.5861 176.96 75.9061 176.864 76.1408 176.672C76.3754 176.469 76.4928 176.224 76.4928 175.936C76.4928 175.424 76.1621 175.093 75.5008 174.944L74.1888 174.656C73.5914 174.528 73.1221 174.272 72.7808 173.888C72.4394 173.504 72.2688 173.04 72.2688 172.496C72.2688 171.835 72.5354 171.264 73.0688 170.784C73.6128 170.304 74.2581 170.064 75.0048 170.064C75.4954 170.064 75.9328 170.139 76.3168 170.288C76.7008 170.427 76.9994 170.613 77.2128 170.848C77.4261 171.083 77.5861 171.301 77.6928 171.504C77.7994 171.707 77.8794 171.915 77.9328 172.128L76.6048 172.624C76.5834 172.496 76.5461 172.373 76.4928 172.256C76.4394 172.128 76.3541 171.989 76.2368 171.84C76.1301 171.691 75.9701 171.573 75.7568 171.488C75.5434 171.392 75.2928 171.344 75.0048 171.344C74.6314 171.344 74.3221 171.445 74.0768 171.648C73.8421 171.851 73.7248 172.091 73.7248 172.368C73.7248 172.859 74.0181 173.168 74.6048 173.296L75.8528 173.568C76.5354 173.717 77.0581 173.995 77.4208 174.4C77.7941 174.795 77.9808 175.28 77.9808 175.856C77.9808 176.464 77.7301 177.013 77.2288 177.504C76.7381 177.995 76.0501 178.24 75.1648 178.24C74.2154 178.24 73.4741 178.005 72.9408 177.536C72.4074 177.056 72.1034 176.544 72.0288 176Z" fill="#6A5C5C"/>
</svg>
