<svg width="107" height="187" viewBox="0 0 107 187" fill="none" xmlns="http://www.w3.org/2000/svg">
<path d="M1.4 8V22H3.7V8H1.4ZM11.6177 11.74C10.2577 11.74 9.17766 12.24 8.51766 13.28V12H6.35766V22H8.51766V16.64C8.51766 14.6 9.63766 13.76 11.0577 13.76C12.4177 13.76 13.2977 14.56 13.2977 16.08V22H15.4577V15.86C15.4577 13.26 13.8577 11.74 11.6177 11.74ZM23.0234 9.82V7.74C20.0234 7.54 18.5034 9.1 18.5034 11.8V12H16.9834V14.08H18.5034V22H20.6634V14.08H23.0234V12H20.6634V11.8C20.6634 10.26 21.5034 9.68 23.0234 9.82ZM28.5386 22.26C31.4786 22.26 33.8186 19.96 33.8186 17C33.8186 14.02 31.4786 11.74 28.5386 11.74C25.6186 11.74 23.2586 14.02 23.2586 17C23.2586 19.96 25.6186 22.26 28.5386 22.26ZM28.5386 20.16C26.7786 20.16 25.4186 18.82 25.4186 17C25.4186 15.18 26.7786 13.84 28.5386 13.84C30.2986 13.84 31.6586 15.18 31.6586 17C31.6586 18.82 30.2986 20.16 28.5386 20.16ZM37.9317 13.68V12H35.7717V22H37.9317V16.96C37.9317 14.72 39.5917 14.06 41.0117 14.16V11.82C39.7517 11.82 38.5317 12.32 37.9317 13.68ZM53.5277 11.74C52.1877 11.74 51.1277 12.28 50.4677 13.32C49.8877 12.32 48.9277 11.74 47.6277 11.74C46.3877 11.74 45.4077 12.22 44.7677 13.2V12H42.6077V22H44.7677V16.4C44.7677 14.58 45.7677 13.76 46.9877 13.76C48.1677 13.76 48.8677 14.54 48.8677 15.94V22H51.0277V16.4C51.0277 14.58 51.9277 13.76 53.2077 13.76C54.3877 13.76 55.1477 14.54 55.1477 15.94V22H57.3077V15.8C57.3077 13.3 55.7877 11.74 53.5277 11.74ZM67.5394 12V13.42C66.7794 12.38 65.5994 11.74 64.0394 11.74C61.3194 11.74 59.0594 14.02 59.0594 17C59.0594 19.96 61.3194 22.26 64.0394 22.26C65.5994 22.26 66.7794 21.62 67.5394 20.56V22H69.6994V12H67.5394ZM64.3794 20.2C62.5794 20.2 61.2194 18.86 61.2194 17C61.2194 15.14 62.5794 13.8 64.3794 13.8C66.1794 13.8 67.5394 15.14 67.5394 17C67.5394 18.86 66.1794 20.2 64.3794 20.2ZM77.797 14.08V12H75.317V9.2L73.157 9.84V12H71.317V14.08H73.157V18.88C73.157 21.48 74.477 22.4 77.797 22V20.06C76.157 20.14 75.317 20.16 75.317 18.88V14.08H77.797ZM80.8361 10.5C81.5961 10.5 82.2161 9.86 82.2161 9.12C82.2161 8.36 81.5961 7.74 80.8361 7.74C80.0761 7.74 79.4561 8.36 79.4561 9.12C79.4561 9.86 80.0761 10.5 80.8361 10.5ZM79.7561 22H81.9161V12H79.7561V22ZM89.1441 22.26C92.0841 22.26 94.4241 19.96 94.4241 17C94.4241 14.02 92.0841 11.74 89.1441 11.74C86.2241 11.74 83.8641 14.02 83.8641 17C83.8641 19.96 86.2241 22.26 89.1441 22.26ZM89.1441 20.16C87.3841 20.16 86.0241 18.82 86.0241 17C86.0241 15.18 87.3841 13.84 89.1441 13.84C90.9041 13.84 92.2641 15.18 92.2641 17C92.2641 18.82 90.9041 20.16 89.1441 20.16ZM101.637 11.74C100.277 11.74 99.1972 12.24 98.5372 13.28V12H96.3772V22H98.5372V16.64C98.5372 14.6 99.6572 13.76 101.077 13.76C102.437 13.76 103.317 14.56 103.317 16.08V22H105.477V15.86C105.477 13.26 103.877 11.74 101.637 11.74Z" fill="#2E2E2E"/>
<path d="M9.296 72L8.064 68.832H3.04L1.84 72H0.16L4.672 60.656H6.48L10.992 72H9.296ZM5.536 62.288L3.6 67.376H7.504L5.536 62.288ZM13.9243 72H12.4363V60.416H13.9243V65.392C14.1269 65.0187 14.4469 64.7093 14.8843 64.464C15.3323 64.208 15.8603 64.08 16.4683 64.08C17.5883 64.08 18.4576 64.4587 19.0763 65.216C19.6949 65.9733 20.0043 66.9387 20.0043 68.112C20.0043 69.296 19.6843 70.2773 19.0443 71.056C18.4043 71.824 17.5296 72.208 16.4203 72.208C15.2683 72.208 14.4363 71.7653 13.9243 70.88V72ZM17.8443 70.112C18.2603 69.6107 18.4683 68.944 18.4683 68.112C18.4683 67.28 18.2603 66.624 17.8443 66.144C17.4389 65.6533 16.8896 65.408 16.1963 65.408C15.5243 65.408 14.9749 65.6533 14.5483 66.144C14.1216 66.6347 13.9083 67.2907 13.9083 68.112C13.9083 68.9333 14.1216 69.6 14.5483 70.112C14.9749 70.6133 15.5243 70.864 16.1963 70.864C16.8789 70.864 17.4283 70.6133 17.8443 70.112ZM23.5046 70.176C23.974 70.656 24.5446 70.896 25.2166 70.896C25.8886 70.896 26.454 70.656 26.9126 70.176C27.382 69.6853 27.6166 69.008 27.6166 68.144C27.6166 67.2907 27.382 66.624 26.9126 66.144C26.454 65.6533 25.8886 65.408 25.2166 65.408C24.5446 65.408 23.974 65.6533 23.5046 66.144C23.046 66.624 22.8166 67.2907 22.8166 68.144C22.8166 69.008 23.046 69.6853 23.5046 70.176ZM22.3846 65.232C23.1313 64.4533 24.0753 64.064 25.2166 64.064C26.358 64.064 27.2966 64.4533 28.0326 65.232C28.7793 66 29.1526 66.9707 29.1526 68.144C29.1526 69.328 28.7846 70.3093 28.0486 71.088C27.3126 71.856 26.3686 72.24 25.2166 72.24C24.0646 72.24 23.1206 71.856 22.3846 71.088C21.6486 70.3093 21.2806 69.328 21.2806 68.144C21.2806 66.9707 21.6486 66 22.3846 65.232ZM36.0708 71.072C35.8681 71.456 35.5588 71.7493 35.1428 71.952C34.7268 72.144 34.2788 72.24 33.7988 72.24C32.9241 72.24 32.2254 71.952 31.7028 71.376C31.1801 70.7893 30.9188 70.048 30.9188 69.152V64.304H32.4228V68.928C32.4228 69.504 32.5614 69.9787 32.8388 70.352C33.1268 70.7253 33.5694 70.912 34.1668 70.912C34.7641 70.912 35.2174 70.736 35.5268 70.384C35.8361 70.0213 35.9908 69.5413 35.9908 68.944V64.304H37.4948V70.576C37.4948 71.0773 37.5214 71.552 37.5748 72H36.1348C36.0921 71.7653 36.0708 71.456 36.0708 71.072ZM42.0773 61.872V64.304H43.7413V65.664H42.0773V69.664C42.0773 70.0267 42.1573 70.2933 42.3173 70.464C42.4879 70.6347 42.7653 70.72 43.1493 70.72C43.3733 70.72 43.5706 70.6987 43.7413 70.656V71.936C43.4853 72.032 43.1439 72.08 42.7173 72.08C42.0559 72.08 41.5333 71.888 41.1493 71.504C40.7653 71.12 40.5733 70.5813 40.5733 69.888V65.664H39.1013V64.304H39.5173C39.9119 64.304 40.2053 64.1973 40.3973 63.984C40.5999 63.76 40.7013 63.472 40.7013 63.12V61.872H42.0773ZM54.8208 71.072C54.6181 71.456 54.3088 71.7493 53.8928 71.952C53.4768 72.144 53.0288 72.24 52.5488 72.24C51.6741 72.24 50.9754 71.952 50.4528 71.376C49.9301 70.7893 49.6688 70.048 49.6688 69.152V64.304H51.1728V68.928C51.1728 69.504 51.3114 69.9787 51.5888 70.352C51.8768 70.7253 52.3194 70.912 52.9168 70.912C53.5141 70.912 53.9674 70.736 54.2768 70.384C54.5861 70.0213 54.7408 69.5413 54.7408 68.944V64.304H56.2448V70.576C56.2448 71.0773 56.2714 71.552 56.3248 72H54.8848C54.8421 71.7653 54.8208 71.456 54.8208 71.072ZM58.0913 70L59.4513 69.52C59.5046 69.936 59.6859 70.2827 59.9953 70.56C60.3046 70.8267 60.7206 70.96 61.2433 70.96C61.6486 70.96 61.9686 70.864 62.2033 70.672C62.4379 70.4693 62.5553 70.224 62.5553 69.936C62.5553 69.424 62.2246 69.0933 61.5633 68.944L60.2513 68.656C59.6539 68.528 59.1846 68.272 58.8433 67.888C58.5019 67.504 58.3313 67.04 58.3313 66.496C58.3313 65.8347 58.5979 65.264 59.1313 64.784C59.6753 64.304 60.3206 64.064 61.0673 64.064C61.5579 64.064 61.9953 64.1387 62.3793 64.288C62.7633 64.4267 63.0619 64.6133 63.2753 64.848C63.4886 65.0827 63.6486 65.3013 63.7553 65.504C63.8619 65.7067 63.9419 65.9147 63.9953 66.128L62.6673 66.624C62.6459 66.496 62.6086 66.3733 62.5553 66.256C62.5019 66.128 62.4166 65.9893 62.2993 65.84C62.1926 65.6907 62.0326 65.5733 61.8193 65.488C61.6059 65.392 61.3553 65.344 61.0673 65.344C60.6939 65.344 60.3846 65.4453 60.1393 65.648C59.9046 65.8507 59.7873 66.0907 59.7873 66.368C59.7873 66.8587 60.0806 67.168 60.6673 67.296L61.9153 67.568C62.5979 67.7173 63.1206 67.9947 63.4833 68.4C63.8566 68.7947 64.0433 69.28 64.0433 69.856C64.0433 70.464 63.7926 71.0133 63.2913 71.504C62.8006 71.9947 62.1126 72.24 61.2273 72.24C60.2779 72.24 59.5366 72.0053 59.0033 71.536C58.4699 71.056 58.1659 70.544 58.0913 70Z" fill="#6A5C5C"/>
<path d="M9.312 114.112H5.52V124H3.952V114.112H0.16V112.656H9.312V114.112ZM11.7248 119.36H15.9328C15.9114 118.784 15.7194 118.315 15.3568 117.952C14.9941 117.579 14.4821 117.392 13.8208 117.392C13.2234 117.392 12.7328 117.589 12.3488 117.984C11.9648 118.368 11.7568 118.827 11.7248 119.36ZM16.1568 121.36L17.4528 121.808C17.2288 122.523 16.8128 123.109 16.2048 123.568C15.5968 124.016 14.8608 124.24 13.9968 124.24C12.9194 124.24 12.0021 123.872 11.2448 123.136C10.4981 122.389 10.1248 121.387 10.1248 120.128C10.1248 118.955 10.4874 117.984 11.2128 117.216C11.9381 116.448 12.8021 116.064 13.8048 116.064C14.9674 116.064 15.8741 116.432 16.5248 117.168C17.1754 117.893 17.5008 118.869 17.5008 120.096C17.5008 120.288 17.4901 120.448 17.4688 120.576H11.6768C11.6874 121.259 11.9114 121.819 12.3488 122.256C12.7968 122.693 13.3461 122.912 13.9968 122.912C15.0954 122.912 15.8154 122.395 16.1568 121.36ZM18.7006 122L20.0606 121.52C20.114 121.936 20.2953 122.283 20.6046 122.56C20.914 122.827 21.33 122.96 21.8526 122.96C22.258 122.96 22.578 122.864 22.8126 122.672C23.0473 122.469 23.1646 122.224 23.1646 121.936C23.1646 121.424 22.834 121.093 22.1726 120.944L20.8606 120.656C20.2633 120.528 19.794 120.272 19.4526 119.888C19.1113 119.504 18.9406 119.04 18.9406 118.496C18.9406 117.835 19.2073 117.264 19.7406 116.784C20.2846 116.304 20.93 116.064 21.6766 116.064C22.1673 116.064 22.6046 116.139 22.9886 116.288C23.3726 116.427 23.6713 116.613 23.8846 116.848C24.098 117.083 24.258 117.301 24.3646 117.504C24.4713 117.707 24.5513 117.915 24.6046 118.128L23.2766 118.624C23.2553 118.496 23.218 118.373 23.1646 118.256C23.1113 118.128 23.026 117.989 22.9086 117.84C22.802 117.691 22.642 117.573 22.4286 117.488C22.2153 117.392 21.9646 117.344 21.6766 117.344C21.3033 117.344 20.994 117.445 20.7486 117.648C20.514 117.851 20.3966 118.091 20.3966 118.368C20.3966 118.859 20.69 119.168 21.2766 119.296L22.5246 119.568C23.2073 119.717 23.73 119.995 24.0926 120.4C24.466 120.795 24.6526 121.28 24.6526 121.856C24.6526 122.464 24.402 123.013 23.9006 123.504C23.41 123.995 22.722 124.24 21.8366 124.24C20.8873 124.24 20.146 124.005 19.6126 123.536C19.0793 123.056 18.7753 122.544 18.7006 122ZM28.671 113.872V116.304H30.335V117.664H28.671V121.664C28.671 122.027 28.751 122.293 28.911 122.464C29.0817 122.635 29.359 122.72 29.743 122.72C29.967 122.72 30.1643 122.699 30.335 122.656V123.936C30.079 124.032 29.7377 124.08 29.311 124.08C28.6497 124.08 28.127 123.888 27.743 123.504C27.359 123.12 27.167 122.581 27.167 121.888V117.664H25.695V116.304H26.111C26.5057 116.304 26.799 116.197 26.991 115.984C27.1937 115.76 27.295 115.472 27.295 115.12V113.872H28.671ZM33.8305 124H32.3425V116.304H33.8305V124ZM32.3105 114.16C32.1078 113.947 32.0065 113.691 32.0065 113.392C32.0065 113.093 32.1078 112.837 32.3105 112.624C32.5238 112.411 32.7798 112.304 33.0785 112.304C33.3772 112.304 33.6332 112.411 33.8465 112.624C34.0598 112.827 34.1665 113.083 34.1665 113.392C34.1665 113.691 34.0598 113.947 33.8465 114.16C33.6332 114.363 33.3772 114.464 33.0785 114.464C32.7798 114.464 32.5238 114.363 32.3105 114.16ZM37.8774 124H36.3894V116.304H37.8294V117.328C38.064 116.923 38.3947 116.613 38.8214 116.4C39.248 116.187 39.696 116.08 40.1654 116.08C40.6667 116.08 41.1254 116.203 41.5414 116.448C41.9574 116.693 42.2667 117.056 42.4694 117.536C43.0027 116.565 43.8614 116.08 45.0454 116.08C45.7814 116.08 46.4054 116.331 46.9174 116.832C47.44 117.333 47.7014 118.059 47.7014 119.008V124H46.2134V119.168C46.2134 118.635 46.0747 118.208 45.7974 117.888C45.5307 117.568 45.1254 117.408 44.5814 117.408C44.0587 117.408 43.632 117.595 43.3014 117.968C42.9707 118.331 42.8054 118.789 42.8054 119.344V124H41.3014V119.168C41.3014 118.635 41.1627 118.208 40.8854 117.888C40.6187 117.568 40.2134 117.408 39.6694 117.408C39.136 117.408 38.704 117.589 38.3734 117.952C38.0427 118.315 37.8774 118.784 37.8774 119.36V124ZM51.6921 122.176C52.1615 122.656 52.7321 122.896 53.4041 122.896C54.0761 122.896 54.6415 122.656 55.1001 122.176C55.5695 121.685 55.8041 121.008 55.8041 120.144C55.8041 119.291 55.5695 118.624 55.1001 118.144C54.6415 117.653 54.0761 117.408 53.4041 117.408C52.7321 117.408 52.1615 117.653 51.6921 118.144C51.2335 118.624 51.0041 119.291 51.0041 120.144C51.0041 121.008 51.2335 121.685 51.6921 122.176ZM50.5721 117.232C51.3188 116.453 52.2628 116.064 53.4041 116.064C54.5455 116.064 55.4841 116.453 56.2201 117.232C56.9668 118 57.3401 118.971 57.3401 120.144C57.3401 121.328 56.9721 122.309 56.2361 123.088C55.5001 123.856 54.5561 124.24 53.4041 124.24C52.2521 124.24 51.3081 123.856 50.5721 123.088C49.8361 122.309 49.4681 121.328 49.4681 120.144C49.4681 118.971 49.8361 118 50.5721 117.232ZM60.7684 119.552V124H59.2644V116.304H60.7364V117.408C61.2484 116.523 62.0377 116.08 63.1044 116.08C63.9897 116.08 64.667 116.363 65.1364 116.928C65.6164 117.493 65.8564 118.224 65.8564 119.12V124H64.3524V119.376C64.3524 118.085 63.755 117.44 62.5604 117.44C61.995 117.44 61.5524 117.643 61.2324 118.048C60.923 118.443 60.7684 118.944 60.7684 119.552ZM69.7368 124H68.2488V116.304H69.7368V124ZM68.2168 114.16C68.0141 113.947 67.9128 113.691 67.9128 113.392C67.9128 113.093 68.0141 112.837 68.2168 112.624C68.4301 112.411 68.6861 112.304 68.9848 112.304C69.2834 112.304 69.5394 112.411 69.7528 112.624C69.9661 112.827 70.0728 113.083 70.0728 113.392C70.0728 113.691 69.9661 113.947 69.7528 114.16C69.5394 114.363 69.2834 114.464 68.9848 114.464C68.6861 114.464 68.4301 114.363 68.2168 114.16ZM71.8156 121.936C71.8156 121.275 72.029 120.747 72.4556 120.352C72.8823 119.947 73.4476 119.696 74.1516 119.6L76.2316 119.296C76.6263 119.243 76.8236 119.051 76.8236 118.72C76.8236 118.315 76.685 117.984 76.4076 117.728C76.1303 117.472 75.7143 117.344 75.1596 117.344C74.6476 117.344 74.2423 117.488 73.9436 117.776C73.645 118.053 73.469 118.427 73.4156 118.896L71.9756 118.56C72.0503 117.824 72.3863 117.227 72.9836 116.768C73.581 116.299 74.2956 116.064 75.1276 116.064C76.2156 116.064 77.021 116.331 77.5436 116.864C78.0663 117.387 78.3276 118.059 78.3276 118.88V122.736C78.3276 123.195 78.3596 123.616 78.4236 124H76.9516C76.8983 123.68 76.8716 123.333 76.8716 122.96C76.6583 123.301 76.3436 123.6 75.9276 123.856C75.5223 124.112 75.0103 124.24 74.3916 124.24C73.6343 124.24 73.0156 124.016 72.5356 123.568C72.0556 123.109 71.8156 122.565 71.8156 121.936ZM74.5996 122.976C75.2716 122.976 75.8103 122.795 76.2156 122.432C76.621 122.069 76.8236 121.493 76.8236 120.704V120.352L74.4716 120.704C74.1303 120.757 73.8583 120.88 73.6556 121.072C73.453 121.264 73.3516 121.525 73.3516 121.856C73.3516 122.155 73.4636 122.416 73.6876 122.64C73.9223 122.864 74.2263 122.976 74.5996 122.976ZM82.1746 124H80.6706V112.416H82.1746V124Z" fill="#6A5C5C"/>
<path d="M8.336 178H1.44V166.656H8.336V168.112H3.008V171.6H7.84V173.072H3.008V176.544H8.336V178ZM17.1689 170.304L14.0969 178H12.5769L9.45688 170.304H11.1529L13.3449 176.24L15.5529 170.304H17.1689ZM19.3498 173.36H23.5578C23.5364 172.784 23.3444 172.315 22.9818 171.952C22.6191 171.579 22.1071 171.392 21.4458 171.392C20.8484 171.392 20.3578 171.589 19.9738 171.984C19.5898 172.368 19.3818 172.827 19.3498 173.36ZM23.7818 175.36L25.0778 175.808C24.8538 176.523 24.4378 177.109 23.8298 177.568C23.2218 178.016 22.4858 178.24 21.6218 178.24C20.5444 178.24 19.6271 177.872 18.8698 177.136C18.1231 176.389 17.7498 175.387 17.7498 174.128C17.7498 172.955 18.1124 171.984 18.8378 171.216C19.5631 170.448 20.4271 170.064 21.4298 170.064C22.5924 170.064 23.4991 170.432 24.1498 171.168C24.8004 171.893 25.1258 172.869 25.1258 174.096C25.1258 174.288 25.1151 174.448 25.0938 174.576H19.3018C19.3124 175.259 19.5364 175.819 19.9738 176.256C20.4218 176.693 20.9711 176.912 21.6218 176.912C22.7204 176.912 23.4404 176.395 23.7818 175.36ZM28.5496 173.552V178H27.0456V170.304H28.5176V171.408C29.0296 170.523 29.819 170.08 30.8856 170.08C31.771 170.08 32.4483 170.363 32.9176 170.928C33.3976 171.493 33.6376 172.224 33.6376 173.12V178H32.1336V173.376C32.1336 172.085 31.5363 171.44 30.3416 171.44C29.7763 171.44 29.3336 171.643 29.0136 172.048C28.7043 172.443 28.5496 172.944 28.5496 173.552ZM38.046 167.872V170.304H39.71V171.664H38.046V175.664C38.046 176.027 38.126 176.293 38.286 176.464C38.4567 176.635 38.734 176.72 39.118 176.72C39.342 176.72 39.5393 176.699 39.71 176.656V177.936C39.454 178.032 39.1127 178.08 38.686 178.08C38.0247 178.08 37.502 177.888 37.118 177.504C36.734 177.12 36.542 176.581 36.542 175.888V171.664H35.07V170.304H35.486C35.8807 170.304 36.174 170.197 36.366 169.984C36.5687 169.76 36.67 169.472 36.67 169.12V167.872H38.046Z" fill="#6A5C5C"/>
</svg>
