<svg width="137" height="187" viewBox="0 0 137 187" fill="none" xmlns="http://www.w3.org/2000/svg">
<path d="M6.06 22.26C8.98 22.26 11.02 20.7 11.02 18.14C11.02 15.36 8.68 14.64 6.36 13.9C4.32 13.26 3.54 12.8 3.54 11.72C3.54 10.66 4.4 9.98 5.74 9.98C7.3 9.98 8.18 10.82 8.68 11.94L10.62 10.82C9.74 8.96 8.04 7.74 5.74 7.74C3.38 7.74 1.24 9.2 1.24 11.78C1.24 14.42 3.36 15.22 5.54 15.88C7.62 16.52 8.72 16.94 8.72 18.18C8.72 19.2 7.94 20.02 6.12 20.02C4.22 20.02 3.14 19.08 2.64 17.66L0.66 18.82C1.4 20.9 3.3 22.26 6.06 22.26ZM17.855 22.26C20.795 22.26 23.135 19.96 23.135 17C23.135 14.02 20.795 11.74 17.855 11.74C14.935 11.74 12.575 14.02 12.575 17C12.575 19.96 14.935 22.26 17.855 22.26ZM17.855 20.16C16.095 20.16 14.735 18.82 14.735 17C14.735 15.18 16.095 13.84 17.855 13.84C19.615 13.84 20.975 15.18 20.975 17C20.975 18.82 19.615 20.16 17.855 20.16ZM29.8081 22.26C31.7681 22.26 33.4681 21.24 34.3081 19.66L32.4481 18.6C31.9681 19.52 30.9881 20.14 29.7881 20.14C28.0281 20.14 26.6881 18.8 26.6881 17C26.6881 15.2 28.0281 13.86 29.7881 13.86C30.9881 13.86 31.9681 14.46 32.4081 15.4L34.2681 14.32C33.4681 12.76 31.7681 11.74 29.8081 11.74C26.7881 11.74 24.5281 14.02 24.5281 17C24.5281 19.96 26.7881 22.26 29.8081 22.26ZM36.9494 10.5C37.7094 10.5 38.3294 9.86 38.3294 9.12C38.3294 8.36 37.7094 7.74 36.9494 7.74C36.1894 7.74 35.5694 8.36 35.5694 9.12C35.5694 9.86 36.1894 10.5 36.9494 10.5ZM35.8694 22H38.0294V12H35.8694V22ZM48.4573 12V13.42C47.6973 12.38 46.5173 11.74 44.9573 11.74C42.2373 11.74 39.9773 14.02 39.9773 17C39.9773 19.96 42.2373 22.26 44.9573 22.26C46.5173 22.26 47.6973 21.62 48.4573 20.56V22H50.6173V12H48.4573ZM45.2973 20.2C43.4973 20.2 42.1373 18.86 42.1373 17C42.1373 15.14 43.4973 13.8 45.2973 13.8C47.0973 13.8 48.4573 15.14 48.4573 17C48.4573 18.86 47.0973 20.2 45.2973 20.2ZM53.135 22H55.295V7.4H53.135V22ZM71.243 8V13.74H65.243V8H62.943V22H65.243V15.94H71.243V22H73.543V8H71.243ZM84.1214 12V13.42C83.3614 12.38 82.1814 11.74 80.6214 11.74C77.9014 11.74 75.6414 14.02 75.6414 17C75.6414 19.96 77.9014 22.26 80.6214 22.26C82.1814 22.26 83.3614 21.62 84.1214 20.56V22H86.2814V12H84.1214ZM80.9614 20.2C79.1614 20.2 77.8014 18.86 77.8014 17C77.8014 15.14 79.1614 13.8 80.9614 13.8C82.7614 13.8 84.1214 15.14 84.1214 17C84.1214 18.86 82.7614 20.2 80.9614 20.2ZM94.0591 11.74C92.6991 11.74 91.6191 12.24 90.9591 13.28V12H88.7991V22H90.9591V16.64C90.9591 14.6 92.0791 13.76 93.4991 13.76C94.8591 13.76 95.7391 14.56 95.7391 16.08V22H97.8991V15.86C97.8991 13.26 96.2991 11.74 94.0591 11.74ZM108.145 8V13.42C107.385 12.38 106.205 11.74 104.645 11.74C101.925 11.74 99.6648 14.02 99.6648 17C99.6648 19.96 101.925 22.26 104.645 22.26C106.205 22.26 107.385 21.62 108.145 20.56V22H110.305V8H108.145ZM104.985 20.2C103.185 20.2 101.825 18.86 101.825 17C101.825 15.14 103.185 13.8 104.985 13.8C106.785 13.8 108.145 15.14 108.145 17C108.145 18.86 106.785 20.2 104.985 20.2ZM112.823 22H114.983V7.4H112.823V22ZM119.19 17.92H127.15C127.19 17.64 127.23 17.32 127.23 17.02C127.23 14.14 125.19 11.74 122.21 11.74C119.07 11.74 116.93 14.04 116.93 17C116.93 20 119.07 22.26 122.37 22.26C124.33 22.26 125.83 21.44 126.75 20.08L124.97 19.04C124.49 19.74 123.59 20.28 122.39 20.28C120.79 20.28 119.53 19.48 119.19 17.92ZM119.17 16.16C119.47 14.66 120.57 13.7 122.19 13.7C123.49 13.7 124.75 14.44 125.05 16.16H119.17ZM130.68 14.76C130.68 14.04 131.36 13.7 132.14 13.7C132.96 13.7 133.66 14.06 134.02 14.84L135.84 13.82C135.14 12.5 133.78 11.74 132.14 11.74C130.1 11.74 128.48 12.92 128.48 14.8C128.48 18.38 133.86 17.38 133.86 19.16C133.86 19.96 133.12 20.28 132.16 20.28C131.06 20.28 130.26 19.74 129.94 18.84L128.08 19.92C128.72 21.36 130.16 22.26 132.16 22.26C134.32 22.26 136.06 21.18 136.06 19.18C136.06 15.48 130.68 16.58 130.68 14.76Z" fill="#2E2E2E"/>
<path d="M3.28 72H1.36V60.656H8.416V62.464H3.28V65.648H7.888V67.424H3.28V72ZM9.62625 69.888C9.62625 69.2267 9.83958 68.6987 10.2663 68.304C10.7036 67.8987 11.2743 67.6427 11.9783 67.536L13.9783 67.232C14.3623 67.1787 14.5543 66.992 14.5543 66.672C14.5543 66.32 14.4316 66.0373 14.1863 65.824C13.9409 65.6 13.5729 65.488 13.0823 65.488C12.6129 65.488 12.2396 65.6213 11.9623 65.888C11.6849 66.144 11.5249 66.48 11.4823 66.896L9.78625 66.512C9.86092 65.808 10.1969 65.2107 10.7943 64.72C11.3916 64.2187 12.1489 63.968 13.0663 63.968C14.1969 63.968 15.0289 64.24 15.5623 64.784C16.1063 65.328 16.3783 66.0267 16.3783 66.88V70.752C16.3783 71.264 16.4103 71.68 16.4743 72H14.7463C14.6929 71.84 14.6663 71.5093 14.6663 71.008C14.1543 71.8293 13.3543 72.24 12.2663 72.24C11.4769 72.24 10.8369 72.0107 10.3463 71.552C9.86625 71.0827 9.62625 70.528 9.62625 69.888ZM12.6183 70.784C13.1943 70.784 13.6583 70.6293 14.0103 70.32C14.3729 70 14.5543 69.4827 14.5543 68.768V68.416L12.5223 68.72C11.8289 68.8373 11.4823 69.1893 11.4823 69.776C11.4823 70.0533 11.5836 70.2933 11.7863 70.496C11.9889 70.688 12.2663 70.784 12.6183 70.784ZM21.9983 65.68C21.4009 65.68 20.8943 65.8987 20.4783 66.336C20.0623 66.7627 19.8543 67.3493 19.8543 68.096C19.8543 68.8533 20.0623 69.4507 20.4783 69.888C20.9049 70.3253 21.4223 70.544 22.0303 70.544C22.5743 70.544 23.0063 70.4 23.3263 70.112C23.6569 69.8133 23.8756 69.4773 23.9823 69.104L25.6143 69.696C25.4009 70.3893 24.9849 70.9867 24.3663 71.488C23.7583 71.9893 22.9796 72.24 22.0303 72.24C20.8889 72.24 19.9289 71.8453 19.1503 71.056C18.3823 70.2667 17.9983 69.28 17.9983 68.096C17.9983 66.9013 18.3769 65.9147 19.1343 65.136C19.9023 64.3573 20.8516 63.968 21.9823 63.968C22.9529 63.968 23.7423 64.2187 24.3503 64.72C24.9689 65.2213 25.3689 65.824 25.5503 66.528L23.8863 67.136C23.7796 66.7307 23.5716 66.3893 23.2623 66.112C22.9636 65.824 22.5423 65.68 21.9983 65.68ZM28.4804 67.248H32.3044C32.283 66.7573 32.107 66.3467 31.7764 66.016C31.4564 65.6853 30.9924 65.52 30.3844 65.52C29.8297 65.52 29.3817 65.696 29.0404 66.048C28.699 66.3893 28.5124 66.7893 28.4804 67.248ZM32.5124 69.28L34.0804 69.776C33.8564 70.4907 33.435 71.0827 32.8164 71.552C32.2084 72.0107 31.4564 72.24 30.5604 72.24C29.451 72.24 28.507 71.8613 27.7284 71.104C26.9604 70.3467 26.5764 69.3333 26.5764 68.064C26.5764 66.8693 26.9497 65.888 27.6964 65.12C28.4537 64.352 29.3444 63.968 30.3684 63.968C31.563 63.968 32.4964 64.336 33.1684 65.072C33.8404 65.7973 34.1764 66.7787 34.1764 68.016C34.1764 68.3467 34.1604 68.544 34.1284 68.608H28.4324C28.4537 69.1947 28.667 69.68 29.0724 70.064C29.4884 70.448 29.9844 70.64 30.5604 70.64C31.563 70.64 32.2137 70.1867 32.5124 69.28ZM37.758 72H35.95V60.416H37.774V65.168C37.966 64.8373 38.2807 64.56 38.718 64.336C39.1553 64.112 39.6567 64 40.222 64C41.3527 64 42.2327 64.384 42.862 65.152C43.502 65.9093 43.822 66.88 43.822 68.064C43.822 69.2693 43.486 70.2613 42.814 71.04C42.1527 71.808 41.2673 72.192 40.158 72.192C39.0487 72.192 38.2487 71.7813 37.758 70.96V72ZM41.358 69.888C41.7527 69.44 41.95 68.8373 41.95 68.08C41.95 67.3227 41.758 66.7307 41.374 66.304C40.99 65.8667 40.4833 65.648 39.854 65.648C39.246 65.648 38.7447 65.8667 38.35 66.304C37.9553 66.7307 37.758 67.3227 37.758 68.08C37.758 68.8267 37.9553 69.424 38.35 69.872C38.7447 70.32 39.246 70.544 39.854 70.544C40.4727 70.544 40.974 70.3253 41.358 69.888ZM47.4783 69.92C47.9049 70.3573 48.4223 70.576 49.0303 70.576C49.6383 70.576 50.1503 70.3573 50.5663 69.92C50.9929 69.4827 51.2063 68.8747 51.2063 68.096C51.2063 67.328 50.9929 66.7307 50.5663 66.304C50.1503 65.8667 49.6383 65.648 49.0303 65.648C48.4223 65.648 47.9049 65.8667 47.4783 66.304C47.0623 66.7307 46.8543 67.328 46.8543 68.096C46.8543 68.864 47.0623 69.472 47.4783 69.92ZM49.0303 63.968C50.2036 63.968 51.1689 64.3573 51.9263 65.136C52.6943 65.9147 53.0783 66.9013 53.0783 68.096C53.0783 69.2907 52.6943 70.2827 51.9263 71.072C51.1689 71.8507 50.2036 72.24 49.0303 72.24C47.8676 72.24 46.9023 71.8507 46.1343 71.072C45.3769 70.2827 44.9983 69.2907 44.9983 68.096C44.9983 66.9013 45.3769 65.9147 46.1343 65.136C46.9023 64.3573 47.8676 63.968 49.0303 63.968ZM56.7439 69.92C57.1705 70.3573 57.6879 70.576 58.2959 70.576C58.9039 70.576 59.4159 70.3573 59.8319 69.92C60.2585 69.4827 60.4719 68.8747 60.4719 68.096C60.4719 67.328 60.2585 66.7307 59.8319 66.304C59.4159 65.8667 58.9039 65.648 58.2959 65.648C57.6879 65.648 57.1705 65.8667 56.7439 66.304C56.3279 66.7307 56.1199 67.328 56.1199 68.096C56.1199 68.864 56.3279 69.472 56.7439 69.92ZM58.2959 63.968C59.4692 63.968 60.4345 64.3573 61.1919 65.136C61.9599 65.9147 62.3439 66.9013 62.3439 68.096C62.3439 69.2907 61.9599 70.2827 61.1919 71.072C60.4345 71.8507 59.4692 72.24 58.2959 72.24C57.1332 72.24 56.1679 71.8507 55.3999 71.072C54.6425 70.2827 54.2639 69.2907 54.2639 68.096C54.2639 66.9013 54.6425 65.9147 55.3999 65.136C56.1679 64.3573 57.1332 63.968 58.2959 63.968ZM71.4335 64.208L68.2335 67.504L71.4975 72H69.2255L66.9375 68.816L65.9775 69.824V72H64.1375V60.416H65.9775V67.36L68.9695 64.208H71.4335Z" fill="#2E2E2E"/>
<path d="M0 77.68H8.912V78.96H0V77.68Z" fill="#2E2E2E"/>
<path d="M8.90625 77.68H71.6415V78.96H8.90625V77.68Z" fill="#2E2E2E"/>
<path d="M9.504 114.464H5.808V124H3.888V114.464H0.208V112.656H9.504V114.464ZM15.3348 116.208H17.2548L19.0948 121.6L20.6468 116.208H22.5348L20.0388 124H18.1828L16.2468 118.4L14.3588 124H12.4548L9.92675 116.208H11.9108L13.4948 121.6L15.3348 116.208ZM25.79 124H23.95V116.208H25.79V124ZM24.014 114.32C23.7793 114.085 23.662 113.803 23.662 113.472C23.662 113.141 23.7793 112.859 24.014 112.624C24.2487 112.379 24.5313 112.256 24.862 112.256C25.2033 112.256 25.4913 112.373 25.726 112.608C25.9607 112.843 26.078 113.131 26.078 113.472C26.078 113.803 25.9607 114.085 25.726 114.32C25.4913 114.555 25.2033 114.672 24.862 114.672C24.5313 114.672 24.2487 114.555 24.014 114.32ZM30.5364 113.824V116.208H32.1524V117.856H30.5364V121.472C30.5364 121.813 30.6164 122.064 30.7764 122.224C30.9364 122.373 31.187 122.448 31.5284 122.448C31.7417 122.448 31.955 122.427 32.1684 122.384V123.92C31.891 124.037 31.5124 124.096 31.0324 124.096C30.307 124.096 29.7364 123.893 29.3204 123.488C28.9044 123.072 28.6964 122.501 28.6964 121.776V117.856H27.2564V116.208H27.6564C28.051 116.208 28.3497 116.096 28.5524 115.872C28.755 115.648 28.8564 115.355 28.8564 114.992V113.824H30.5364ZM36.3801 113.824V116.208H37.9961V117.856H36.3801V121.472C36.3801 121.813 36.4601 122.064 36.6201 122.224C36.7801 122.373 37.0308 122.448 37.3721 122.448C37.5855 122.448 37.7988 122.427 38.0121 122.384V123.92C37.7348 124.037 37.3561 124.096 36.8761 124.096C36.1508 124.096 35.5801 123.893 35.1641 123.488C34.7481 123.072 34.5401 122.501 34.5401 121.776V117.856H33.1001V116.208H33.5001C33.8948 116.208 34.1935 116.096 34.3961 115.872C34.5988 115.648 34.7001 115.355 34.7001 114.992V113.824H36.3801ZM41.121 119.248H44.945C44.9237 118.757 44.7477 118.347 44.417 118.016C44.097 117.685 43.633 117.52 43.025 117.52C42.4703 117.52 42.0223 117.696 41.681 118.048C41.3397 118.389 41.153 118.789 41.121 119.248ZM45.153 121.28L46.721 121.776C46.497 122.491 46.0757 123.083 45.457 123.552C44.849 124.011 44.097 124.24 43.201 124.24C42.0917 124.24 41.1477 123.861 40.369 123.104C39.601 122.347 39.217 121.333 39.217 120.064C39.217 118.869 39.5903 117.888 40.337 117.12C41.0943 116.352 41.985 115.968 43.009 115.968C44.2037 115.968 45.137 116.336 45.809 117.072C46.481 117.797 46.817 118.779 46.817 120.016C46.817 120.347 46.801 120.544 46.769 120.608H41.073C41.0943 121.195 41.3077 121.68 41.713 122.064C42.129 122.448 42.625 122.64 43.201 122.64C44.2037 122.64 44.8543 122.187 45.153 121.28ZM53.1506 116.16V118.048C52.9373 118.016 52.7346 118 52.5426 118C51.1453 118 50.4466 118.763 50.4466 120.288V124H48.5906V116.208H50.3986V117.456C50.58 117.04 50.8733 116.715 51.2786 116.48C51.684 116.235 52.1426 116.112 52.6546 116.112C52.8253 116.112 52.9906 116.128 53.1506 116.16Z" fill="#2E2E2E"/>
<path d="M0 129.68H9.712V130.96H0V129.68Z" fill="#2E2E2E"/>
<path d="M9.71875 129.68H53.4706V130.96H9.71875V129.68Z" fill="#2E2E2E"/>
<path d="M4.128 173.2L0.16 166.656H2.432L5.152 171.408L7.888 166.656H10.048L6.048 173.2V178H4.128V173.2ZM13.2751 175.92C13.7018 176.357 14.2191 176.576 14.8271 176.576C15.4351 176.576 15.9471 176.357 16.3631 175.92C16.7898 175.483 17.0031 174.875 17.0031 174.096C17.0031 173.328 16.7898 172.731 16.3631 172.304C15.9471 171.867 15.4351 171.648 14.8271 171.648C14.2191 171.648 13.7018 171.867 13.2751 172.304C12.8591 172.731 12.6511 173.328 12.6511 174.096C12.6511 174.864 12.8591 175.472 13.2751 175.92ZM14.8271 169.968C16.0005 169.968 16.9658 170.357 17.7231 171.136C18.4911 171.915 18.8751 172.901 18.8751 174.096C18.8751 175.291 18.4911 176.283 17.7231 177.072C16.9658 177.851 16.0005 178.24 14.8271 178.24C13.6645 178.24 12.6991 177.851 11.9311 177.072C11.1738 176.283 10.7951 175.291 10.7951 174.096C10.7951 172.901 11.1738 171.915 11.9311 171.136C12.6991 170.357 13.6645 169.968 14.8271 169.968ZM25.6939 177.136C25.5125 177.477 25.2139 177.744 24.7979 177.936C24.3925 178.128 23.9552 178.224 23.4859 178.224C22.5792 178.224 21.8592 177.931 21.3259 177.344C20.8032 176.757 20.5419 176.016 20.5419 175.12V170.208H22.3979V174.784C22.3979 175.307 22.5259 175.733 22.7819 176.064C23.0379 176.395 23.4325 176.56 23.9659 176.56C24.4885 176.56 24.8885 176.4 25.1659 176.08C25.4539 175.76 25.5979 175.339 25.5979 174.816V170.208H27.4539V176.576C27.4539 177.045 27.4805 177.52 27.5339 178H25.7579C25.7152 177.765 25.6939 177.477 25.6939 177.136ZM32.2083 167.824V170.208H33.8243V171.856H32.2083V175.472C32.2083 175.813 32.2883 176.064 32.4483 176.224C32.6083 176.373 32.8589 176.448 33.2003 176.448C33.4136 176.448 33.6269 176.427 33.8403 176.384V177.92C33.5629 178.037 33.1843 178.096 32.7043 178.096C31.9789 178.096 31.4083 177.893 30.9923 177.488C30.5763 177.072 30.3683 176.501 30.3683 175.776V171.856H28.9283V170.208H29.3283C29.7229 170.208 30.0216 170.096 30.2243 169.872C30.4269 169.648 30.5283 169.355 30.5283 168.992V167.824H32.2083ZM40.8189 177.136C40.6375 177.477 40.3389 177.744 39.9229 177.936C39.5175 178.128 39.0802 178.224 38.6109 178.224C37.7042 178.224 36.9842 177.931 36.4509 177.344C35.9282 176.757 35.6669 176.016 35.6669 175.12V170.208H37.5229V174.784C37.5229 175.307 37.6509 175.733 37.9069 176.064C38.1629 176.395 38.5575 176.56 39.0909 176.56C39.6135 176.56 40.0135 176.4 40.2909 176.08C40.5789 175.76 40.7229 175.339 40.7229 174.816V170.208H42.5789V176.576C42.5789 177.045 42.6055 177.52 42.6589 178H40.8829C40.8402 177.765 40.8189 177.477 40.8189 177.136ZM46.7893 178H44.9813V166.416H46.8053V171.168C46.9973 170.837 47.3119 170.56 47.7493 170.336C48.1866 170.112 48.6879 170 49.2533 170C50.3839 170 51.2639 170.384 51.8933 171.152C52.5333 171.909 52.8533 172.88 52.8533 174.064C52.8533 175.269 52.5173 176.261 51.8453 177.04C51.1839 177.808 50.2986 178.192 49.1893 178.192C48.0799 178.192 47.2799 177.781 46.7893 176.96V178ZM50.3893 175.888C50.7839 175.44 50.9813 174.837 50.9813 174.08C50.9813 173.323 50.7893 172.731 50.4053 172.304C50.0213 171.867 49.5146 171.648 48.8853 171.648C48.2773 171.648 47.7759 171.867 47.3813 172.304C46.9866 172.731 46.7893 173.323 46.7893 174.08C46.7893 174.827 46.9866 175.424 47.3813 175.872C47.7759 176.32 48.2773 176.544 48.8853 176.544C49.5039 176.544 50.0053 176.325 50.3893 175.888ZM55.9335 173.248H59.7575C59.7362 172.757 59.5602 172.347 59.2295 172.016C58.9095 171.685 58.4455 171.52 57.8375 171.52C57.2828 171.52 56.8348 171.696 56.4935 172.048C56.1522 172.389 55.9655 172.789 55.9335 173.248ZM59.9655 175.28L61.5335 175.776C61.3095 176.491 60.8882 177.083 60.2695 177.552C59.6615 178.011 58.9095 178.24 58.0135 178.24C56.9042 178.24 55.9602 177.861 55.1815 177.104C54.4135 176.347 54.0295 175.333 54.0295 174.064C54.0295 172.869 54.4028 171.888 55.1495 171.12C55.9068 170.352 56.7975 169.968 57.8215 169.968C59.0162 169.968 59.9495 170.336 60.6215 171.072C61.2935 171.797 61.6295 172.779 61.6295 174.016C61.6295 174.347 61.6135 174.544 61.5815 174.608H55.8855C55.9068 175.195 56.1202 175.68 56.5255 176.064C56.9415 176.448 57.4375 176.64 58.0135 176.64C59.0162 176.64 59.6668 176.187 59.9655 175.28Z" fill="#2E2E2E"/>
<path d="M0 183.68H10.208V184.96H0V183.68Z" fill="#2E2E2E"/>
<path d="M10.2031 183.68H62.2055V184.96H10.2031V183.68Z" fill="#2E2E2E"/>
</svg>
